/* XPM */
static char *ezgif_4_a109b6b220[] = {
/* columns rows colors chars-per-pixel */
"50 50 127 2 ",
"   c None",
".  c #030101",
"X  c #080605",
"o  c #1A0506",
"O  c #1C1613",
"+  c #1F1916",
"@  c #1D1C18",
"#  c #2B0D0B",
"$  c #340F0D",
"%  c #38100E",
"&  c #201A17",
"*  c #211F1B",
"=  c #2F241E",
"-  c #2E2520",
";  c #332822",
":  c #3A2D26",
">  c #3E3029",
",  c #471111",
"<  c #4B1512",
"1  c #521A14",
"2  c #6D1F1B",
"3  c #711F1C",
"4  c #6A211A",
"5  c #71201C",
"6  c #552C23",
"7  c #563127",
"8  c #5A4336",
"9  c #534238",
"0  c #765949",
"q  c #795E50",
"w  c #7F6254",
"e  c #822521",
"r  c #902F23",
"t  c #8D3022",
"y  c #913C2D",
"u  c #AA332A",
"i  c #CB3E32",
"p  c #BA472B",
"a  c #CF4731",
"s  c #CC4932",
"d  c #CA4F3E",
"f  c #D14034",
"g  c #D04B34",
"h  c #CF543D",
"j  c #D0553D",
"k  c #D45B3C",
"l  c #D85E3C",
"z  c #E45E33",
"x  c #F15639",
"c  c #F55A39",
"v  c #DE663A",
"b  c #E06738",
"n  c #E3693B",
"m  c #FE6F37",
"M  c #FB6D38",
"N  c #EC7537",
"B  c #EF7837",
"V  c #ED7638",
"C  c #F47334",
"Z  c #FE7037",
"A  c #F17A36",
"S  c #FD7F34",
"D  c #FF7038",
"F  c #B73A43",
"G  c #BA3D42",
"H  c #BC4042",
"J  c #96614A",
"K  c #9A6E56",
"L  c #91705F",
"P  c #9D745C",
"I  c #927160",
"U  c #C54A40",
"Y  c #C84F43",
"T  c #C06444",
"R  c #C16C4A",
"E  c #DA6647",
"W  c #DF6B43",
"Q  c #FF872F",
"!  c #FF892E",
"~  c #FD8333",
"^  c #FF8A33",
"/  c #FF8E3C",
"(  c #FF9032",
")  c #FF903D",
"_  c #BC8E76",
"`  c #F58442",
"'  c #F88744",
"]  c #F0834A",
"[  c #FF9345",
"{  c #FF964C",
"}  c #FF994C",
"|  c #E98055",
" . c #ED905C",
".. c #FB9751",
"X. c #FF9F50",
"o. c #FE9D5C",
"O. c #FFA05D",
"+. c #C78A63",
"@. c #DC9974",
"#. c #DD9F79",
"$. c #F19763",
"%. c #F79A67",
"&. c #F09E68",
"*. c #E19F7B",
"=. c #FFA766",
"-. c #F3A06B",
";. c #FFA66A",
":. c #FFAA69",
">. c #E1A37E",
",. c #FFAA73",
"<. c #FEAD7B",
"1. c #FFB27F",
"2. c #E1AA8C",
"3. c #FFB180",
"4. c #FFB78C",
"5. c #FFB98F",
"6. c #FFB88D",
"7. c #FFB98B",
"8. c #E8AF91",
"9. c #FFB990",
"0. c #FFBA91",
"q. c #FFBA92",
"w. c #FFBB92",
"e. c #FFBE90",
"r. c #FFBF91",
"t. c #FFBB94",
"y. c #FFBC94",
/* pixels */
"                                                                                                    ",
"                                                                                                    ",
"                                                                                                    ",
"                            . . . . . . . . . . . . . . . . . . . . . .                             ",
"                          X X X X X X X X X X X X X X X X X X X X X X X X                           ",
"                        - : > > > > > > > > > > > > > > > > > > > > > > : =                         ",
"                      @ 9 w L I I L L L I L L L L L L L L L L L I I I L w 9 O                       ",
"                    . = 0 _ 2.8.2.2.2.2.2.2.2.2.2.2.2.2.2.2.2.2.2.2.8.2._ 0 = .                     ",
"                  o # 6 J @.7.r.7.7.7.7.7.7.7.7.7.7.7.7.7.7.7.7.7.7.r.7.#.K 8 ; &                   ",
"                o , 2 y T  .:.:.:.=.=.=.=.=.=.=.=.=.=.=.=.=.=.=.=.:.:.:.&.+.P q 9 +                 ",
"              . # 2 u g n ` [ [ [ [ [ [ [ [ [ [ [ [ [ [ [ [ [ [ [ [ [ [ ..-.>._ q ; .               ",
"            o # 1 r a c Z ~ ^ ) [ [ [ [ [ [ [ [ [ [ [ [ [ [ [ [ [ [ ^ ^ [ =.1.>.P 8 = O             ",
"          # < 4 t p z Z S ~ / } O.;.;.;.;.;.;.;.;.;.;.;.;.;.;.;.;.o.[ ^ / } =.-.+.K 0 9 =           ",
"        . $ 5 u a z C ~ ~ ~ ) o.<.4.0.7.7.7.7.7.7.7.7.7.7.7.7.0.4.<.o./ ^ / [ ..&.#._ w : X         ",
"      . . % e i x M S ~ ~ A ` o.<.0.y.0.0.0.0.0.0.0.0.0.0.0.0.t.7.3.=.{ / ^ ^ [ :.7.2.L > X .       ",
"      . . % e f c D ~ ~ N b W | %.,.,.,.,.,.,.,.,.,.,.,.,.,.,.,.,.,.;.=.o.[ ^ [ :.r.8.I > X .       ",
"      . X % e i x Z ~ A v d Y E ] { } { { { { { { { { { { { { { { o.,.3.<.o.[ [ :.7.2.I > X .       ",
"      . . % e i x Z ~ A k H F j V ^ / ^ ^ ^ ^ ^ ^ ^ ^ ^ ^ ^ ^ ^ ^ { ,.0.4.;.[ [ =.7.2.I > X .       ",
"      . . % e i x Z ~ A k F F h N Q ! ! Q Q Q Q Q Q Q Q Q Q Q Q ^ { ,.t.0.;.[ [ =.7.2.L > X .       ",
"      . . % e i x Z S A k F G h N ~ ^ ^ ^ ^ ^ ^ ^ ^ ^ ^ ^ ^ ~ Q ^ { ,.0.7.;.[ [ =.7.2.L > X .       ",
"      . . % e i x m S A k F F j N ^ ^ ^ ^ ^ ^ ^ ^ ^ ^ ^ ^ ^ ^ Q ^ { ,.0.7.;.[ [ =.7.2.I > X .       ",
"      . . % e i x m S A k G F j N ^ ^ ^ ^ ^ ^ ^ ^ ^ ^ ^ ^ ^ ^ Q ^ { ,.0.7.;.[ [ =.7.2.I > X .       ",
"      . . % e i x m S A k H F j N ^ ^ ^ ^ ^ ^ ^ ^ ^ ^ ^ ^ ^ ^ Q ^ { ,.0.7.;.[ [ =.7.2.L > X .       ",
"      . . % e i x m S A k H F j N ^ ^ ^ ^ ^ ^ ^ ^ ^ ^ ^ ^ ^ ^ Q ^ { ,.0.7.;.[ [ =.7.2.L > X .       ",
"      . . % e i x m S A k F F j N ^ ^ ^ ^ ^ ^ ^ ^ ^ ^ ^ ^ ^ ^ Q ^ { ,.0.7.;.[ [ =.7.2.L > X .       ",
"      . . % e i x m S A k F F j N ^ ^ ^ ^ ^ ^ ^ ^ ^ ^ ^ ^ ^ ^ Q ^ { ,.0.7.;.[ [ =.7.2.L > X .       ",
"      . . % e i x m S A k F F j N ^ ^ ^ ^ ^ ^ ^ ^ ^ ^ ^ ^ ^ ^ Q ^ { ,.0.7.;.[ [ =.7.2.L > X .       ",
"      . . % e i x m S A k F F j N ^ ^ ^ ^ ^ ^ ^ ^ ^ ^ ^ ^ ^ ^ Q ^ { ,.0.7.;.[ [ =.7.2.L > X .       ",
"      . X % e i x Z ~ A k F F j N ^ ^ ^ ^ ^ ^ ^ ^ ^ ^ ^ ^ ^ ^ Q ^ { ,.0.7.;.[ [ =.7.2.I > X .       ",
"      . . % e i x Z ~ A k H F j N ^ ^ ^ ^ ^ ^ ^ ^ ^ ^ ^ ^ ^ ^ Q ^ { ,.0.7.;.[ [ =.7.2.I > X .       ",
"      . X % e i x Z ~ A k F F h N ^ ^ ^ ^ ^ ^ ^ ^ ^ ^ ^ ^ ^ ^ ! ^ { ,.0.7.;.[ [ =.7.2.I > X .       ",
"      . X % e i x Z ~ A k F F h N ^ ( ^ ^ ^ ^ ^ ^ ^ ^ ^ ^ ^ ^ ! / } ,.y.0.;.[ [ =.7.2.I > X .       ",
"      . . % e i x Z S A k H F j N ^ ^ ^ ^ ^ ^ ^ ^ ^ ^ ^ ^ ^ ~ Q ^ { ,.0.4.;.[ [ =.7.2.I > X .       ",
"      . . % e i x D ~ A v d U j b N N N N N N N N N N N N N N N V ] %.<.<.o.[ [ =.7.2.I > X .       ",
"      . . % e f c D ~ ~ B b l k j j h h j j j j h h j j h h h h j E | o.o.[ ^ [ :.r.8.I > X .       ",
"      . . % e i x M ~ ^ ^ A N l U F F G F F F F F F F F F F G F F Y W ` ) / ^ [ :.7.2.L > X .       ",
"        . $ 5 u a z C ~ ^ ^ ~ b d G G F F F F F F F G G G F F F H d b A / ) [ ..&.#._ w : X         ",
"          # < 4 t p z Z ~ ^ ^ B v k k k k k k k k k k k k k k k k v N ~ ) X.=.-.+.K 0 9 =           ",
"            o # 1 r a c Z ~ ^ ~ A A A A A A A A A A A A A A A A A A ~ ~ [ =.1.>.P 8 = O             ",
"              . # 2 u a z C S ~ ~ ~ ~ ~ ~ ~ S S ~ ~ ~ ~ S S S S S S S ~ ' $.*._ q ; .               ",
"                o , 2 r p z M D Z m Z m m m m m m m m m m Z Z Z Z m m M n R K q 9 &                 ",
"                  o # 1 t s x c x x x x x x x x x x x x x x x x x x c x s y 7 ; *                   ",
"                    . # 4 u i f i i i i i i i i i i i i i i i i i i f i u 4 # .                     ",
"                      o < 5 e e e e e e e e e e e e e e e e e e e e e e 3 < o                       ",
"                        # $ % % % % % % % % % % % % % % % % % % % % % % $ #                         ",
"                          . . . . . . . . . . . . . . . . . . . . . X X .                           ",
"                            . . . . . . . . . . . . . . . . . . . . . .                             ",
"                                                                                                    ",
"                                                                                                    ",
"                                                                                                    "
};
