/* XPM */
static char *a0c99c3a50024943a7a12ef9e8f704b6eh8mjXMT0egKSGjK[] = {
/* columns rows colors chars-per-pixel */
"50 50 156 2 ",
"   c None",
".  c #060A0C",
"X  c #0C0A0C",
"o  c #130B0D",
"O  c #1B0B0E",
"+  c #060D10",
"@  c #0D0F14",
"#  c #150E13",
"$  c #1D0E12",
"%  c #071015",
"&  c #091015",
"*  c #141114",
"=  c #1C1315",
"-  c #1A1719",
";  c #1E1C1E",
":  c #240C0E",
">  c #2C0D0F",
",  c #340B0F",
"<  c #3C0B0E",
"1  c #250C11",
"2  c #2C0C10",
"3  c #340E11",
"4  c #3A0E10",
"5  c #251617",
"6  c #2A1113",
"7  c #2D1815",
"8  c #241B1B",
"9  c #2C1C1C",
"0  c #341113",
"q  c #3B1113",
"w  c #331D1E",
"e  c #31211F",
"r  c #1E1E20",
"t  c #222123",
"y  c #2E2424",
"u  c #342525",
"i  c #392626",
"p  c #352827",
"a  c #372E2E",
"s  c #352D2D",
"d  c #352B2B",
"f  c #392828",
"g  c #3A2828",
"h  c #3A2929",
"j  c #3B2A2A",
"k  c #3B2B2B",
"l  c #382E2E",
"z  c #382F2F",
"x  c #3C2C2C",
"c  c #3C2D2D",
"v  c #3D2D2D",
"b  c #3D2E2E",
"n  c #3D2F2F",
"m  c #3E2F2F",
"M  c #3B2C2C",
"N  c #3A2F30",
"B  c #383030",
"V  c #393030",
"C  c #3A3030",
"Z  c #3A3131",
"A  c #3B3131",
"S  c #3E3030",
"D  c #3F3131",
"F  c #3E3131",
"G  c #3C3333",
"H  c #3C3334",
"J  c #3D3434",
"K  c #3E3434",
"L  c #3E3535",
"P  c #3F3535",
"I  c #3F3434",
"U  c #3D3232",
"Y  c #44090D",
"T  c #4C090C",
"R  c #55070A",
"E  c #5B070A",
"W  c #52090C",
"Q  c #5B0A0D",
"!  c #410F11",
"~  c #420F10",
"^  c #420F11",
"/  c #440D10",
"(  c #431011",
")  c #471113",
"_  c #461314",
"`  c #4A1012",
"'  c #4B1012",
"]  c #4B1113",
"[  c #4C1011",
"{  c #4A1718",
"}  c #401D1E",
"|  c #551112",
" . c #551113",
".. c #521214",
"X. c #541314",
"o. c #5D1213",
"O. c #5D1415",
"+. c #5E1515",
"@. c #521718",
"#. c #591819",
"$. c #5D1818",
"%. c #5D1818",
"&. c #6C0507",
"*. c #620609",
"=. c #680608",
"-. c #63090B",
";. c #6B090A",
":. c #720407",
">. c #7A0406",
",. c #730709",
"<. c #7A0608",
"1. c #73080A",
"2. c #7C090A",
"3. c #621414",
"4. c #651515",
"5. c #661515",
"6. c #641414",
"7. c #691414",
"8. c #631919",
"9. c #6E1A1A",
"0. c #731515",
"q. c #791515",
"w. c #412C2C",
"e. c #432C2C",
"r. c #403333",
"t. c #413333",
"y. c #403434",
"u. c #413535",
"i. c #413636",
"p. c #413737",
"a. c #403737",
"s. c #423636",
"d. c #433737",
"f. c #453737",
"g. c #463737",
"h. c #413333",
"j. c #493131",
"k. c #483232",
"l. c #4A3232",
"z. c #4B3232",
"x. c #483030",
"c. c #423838",
"v. c #433838",
"b. c #433939",
"n. c #423939",
"m. c #443939",
"M. c #443A3A",
"N. c #453A3A",
"B. c #443B3B",
"V. c #453B3B",
"C. c #453C3C",
"Z. c #433939",
"A. c #820305",
"S. c #8C0203",
"D. c #8B0708",
"F. c #83080A",
/* pixels */
"                N.G j m j m c.t.j m m j G c.t.j m j m i.i.m m m m m i.i.m m m j i.                  ",
"                J m i m j j i.G u j j i m i.G j m j j i.i.j j m j j i.i.m j m i G                   ",
"                  y y y y y p y y y y y y p p y p y y p p y y y y y p y y y y y y                   ",
"                c.J J J J J J J J J J J J J V s s d s J J J J d t d J J K J J J i.                  ",
"                N.N.J y y V N.N.N.N.N.c.s t * . + . & r s i.N.i.y s N.J y y V N.N.                  ",
"                N.J 8 8 8 8 V N.N.N.H ; . . . . . . . . . - V c.u d J 8 8 8 8 V N.                  ",
"                N.d 8 w 9 = t c.N.z * X X X o X o o o o o o # d d V d 5 9 w 8 t c.                  ",
"                N.y 9 9 o X 8 c.N = o o o o O O O O O O O O O $ p i.y = o 5 9 t c.                  ",
"                N.J 9 9 o o d i.5 O O O : : : : : : : : : : : : 6 G J - X o 9 z N.                  ",
"                N.N.G p y s c.u : : > > > > : 1 1 1 1 > > > > > > w i.V 8 t V N.N.                  ",
"                c.N.N.N.N.C.t.0 , , , 3 1 # @ % % % & # 1 3 4 4 4 4 e.C.N.N.N.N.N.                  ",
"                s z z z z z i 4 4 4 3 $ & % % % % % % % & = 3 ~ ~ ~ } z z z z z s                   ",
"                  d d d d d q ~ ( q * % % % % % % % % % % % * q ` ` _ u d d d d z                   ",
"                N.N.N.N.N.f.{ [ ` = % & & & & & & & & & & & % * `  .X.j.N.N.N.N.N.                  ",
"                N.N.N.N.N.f.@. .0 & & & & & & & & & & & & & & & 6 o.O.j.N.N.N.N.N.                  ",
"                N.N.N.N.N.f.#. .= @ @ @ @ @ @ @ @ @ @ @ @ @ @ @ * ..5.j.N.N.N.N.c.                  ",
"                p i.N.N.N.f.$.) # @ @ @ @ @ @ @ @ @ @ @ @ @ @ @ @ q 5.j.N.N.N.N.z                   ",
"                y z N.N.N.f.$.q # # # # # # # # # # # # # # # # # 6 3.j.N.N.N.c.V                   ",
"                G c.c.c.c.i.$.2 # # # # # # # # # # # # # # # # # 1 O.x.c.c.c.i.J                   ",
"                  y y y y u O.3 $ $ $ $ $ $ $ $ $ $ $ $ $ $ $ $ $ 1 3.i y y y y y                   ",
"                  s d d d m 8.3 $ $ $ $ $ $ $ $ $ $ $ $ $ $ $ $ $ 2 3.e.J J J J c.                  ",
"                N.d j G j z 8.4 1 1 1 1 1 1 1 1 1 1 1 1 1 1 1 1 1 2 3.e.d s d d c.                  ",
"                N.s G t.i z 8.4 1 1 1 1 1 1 1 1 1 1 1 1 1 1 1 1 1 3 3.e.u t.G d c.                  ",
"                N.s G i.i z 8.4 2 2 2 2 2 2 2 2 2 2 2 2 2 2 2 2 2 3 3.e.u t.t.d c.                  ",
"                N.s m t.i j 8.~ 2 2 2 2 2 2 2 2 2 2 2 2 2 2 2 2 2 3 3.e.u t.t.d c.                  ",
"                N.s m t.i M 8./ , , , , , , , , , , , , , , , , , 4 5.e.u t.t.d c.                  ",
"                N.s G i.i z 8./ , , , , , , , , , , , , , , , , , < 5.e.u t.t.d c.                  ",
"                N.s G G i z 8.T < < < < < < < < < < < < < < < < < Y 5.e.u G t.d c.                  ",
"                N.s G t.i z 8.T < < < < < < < < < < < < < < < < < Y 5.e.u G G d c.                  ",
"                N.d m i.i z 8.T Y Y Y Y Y Y Y Y Y Y Y Y Y Y Y Y Y T 5.e.u t.i.s c.                  ",
"                N.d i t.i z 8.W Y Y Y Y Y Y Y Y Y Y Y Y Y Y Y Y Y T 5.e.u G j u c.                  ",
"                N.s i.i.i z 8.W T T T T T T T T T T T T T T T T T T 5.e.u t.t.d c.                  ",
"                N.s G G i z 8.Q T T T T T T T T T T T T T T T T T W 5.e.u G i.d c.                  ",
"                N.s G m i z 8.Q W W W W W W W W W W W W W W W W W R 5.e.u m G s c.                  ",
"                N.s G t.i j 8.Q R R R R R R R R R R R R R R R R R Q 7.e.u G G s c.                  ",
"                N.s G i.i M 8.-.E E E E E E E E E E E E E E E E E E 7.e.u t.t.d c.                  ",
"                N.s G i.i z 8.-.E E E E E E E E E E E E E E E E E -.7.e.u t.t.d c.                  ",
"                N.s i.t.j z 8.-.*.*.*.*.*.*.*.*.*.*.*.*.*.*.*.*.*.-.7.e.u t.t.s c.                  ",
"                N.d s V d m 8.;.*.*.*.*.*.*.*.*.*.*.*.*.*.*.*.*.*.-.7.e.p z z s c.                  ",
"                N.i.J J J f.8.;.=.=.=.=.=.=.=.=.=.=.=.=.=.=.=.=.=.;.7.j.J J J i.N.                  ",
"                N.d u u u m 8.;.&.&.&.&.&.&.&.&.&.&.&.&.&.&.&.&.&.&.7.e.p u u u c.                  ",
"                N.d j j i j 8.1.:.:.:.:.:.:.:.:.:.:.:.:.:.:.:.:.:.,.7.e.u e.j d c.                  ",
"                N.s z d j j 8.1.:.:.:.:.:.:.:.:.:.:.:.:.:.:.:.:.:.,.7.e.j z j s i.                  ",
"                N.s p 9 j m 9.2.>.>.>.>.>.>.>.>.>.>.>.>.>.>.>.>.>.<.0.e.u u u s c.                  ",
"                N.d e 5 u z 9.F.>.>.>.>.>.>.>.>.>.>.>.>.>.>.>.>.>.>.q.e.u 9 9 p c.                  ",
"                N.d 9 : w z 9.F.A.A.A.>.>.A.A.A.A.A.A.A.A.A.A.A.A.F.q.e.w 6 7 p c.                  ",
"                N.s u 9 u z 9.F.A.A.A.A.A.A.A.A.A.A.A.A.A.A.A.A.A.A.q.e.u 9 u d c.                  ",
"                c.s M u j j 9.D.S.S.S.S.S.S.S.S.S.S.S.S.S.S.S.S.S.D.q.e.j j u z c.                  ",
"                N.s z z d z 9.D.S.S.S.S.S.S.S.S.S.S.S.S.S.S.S.S.S.S.q.e.u z z s c.                  ",
"                N.J V V V t.9.D.S.S.S.S.S.S.S.S.S.S.S.S.S.S.S.S.S.S.q.x.G V V G c.                  "
};
