/* XPM */
static char *_437d7a9a62542cdaf15e35582042e04EB8gD1rBQSxGgEAv[] = {
/* columns rows colors chars-per-pixel */
"50 50 220 2 ",
"   c #0D070E",
".  c #170D19",
"X  c #1C111C",
"o  c #20141E",
"O  c #1F1221",
"+  c #211423",
"@  c #2C1525",
"#  c #231826",
"$  c #2C1728",
"%  c #261B29",
"&  c #2A1C2B",
"*  c #311827",
"=  c #331B2C",
"-  c #3A1B2B",
";  c #331E37",
":  c #3D1E35",
">  c #2B212E",
",  c #372627",
"<  c #2D2335",
"1  c #322332",
"2  c #3F2034",
"3  c #37273B",
"4  c #35293B",
"5  c #3C2A3D",
"6  c #411F37",
"7  c #49292D",
"8  c #47352E",
"9  c #53342D",
"0  c #432135",
"q  c #442139",
"w  c #4B2738",
"e  c #53283A",
"r  c #552B3C",
"t  c #5A2F3C",
"y  c #493A33",
"u  c #5A303C",
"i  c #64333F",
"p  c #68353B",
"a  c #68363F",
"s  c #6A3A3E",
"d  c #5B4234",
"f  c #664838",
"g  c #764E3C",
"h  c #3A2B43",
"j  c #3B3346",
"k  c #3C3755",
"l  c #3D3662",
"z  c #432B45",
"x  c #492E44",
"c  c #462E4A",
"v  c #582C42",
"b  c #473345",
"n  c #46324A",
"m  c #4B334D",
"M  c #583547",
"N  c #55394D",
"B  c #4E3752",
"V  c #443D56",
"C  c #4F3853",
"Z  c #533752",
"A  c #523A54",
"S  c #5B3D54",
"D  c #563D59",
"F  c #5A3F5D",
"G  c #632F40",
"H  c #653341",
"J  c #6C3643",
"K  c #673B44",
"L  c #6C3B44",
"P  c #733743",
"I  c #743A43",
"U  c #7B3D45",
"Y  c #783D49",
"T  c #673D55",
"R  c #433C63",
"E  c #443D69",
"W  c #5A434D",
"Q  c #46405D",
"!  c #57415B",
"~  c #5B405E",
"^  c #68454D",
"/  c #7D4244",
"(  c #784647",
")  c #7C434A",
"_  c #7F5043",
"`  c #65465F",
"'  c #6B465A",
"]  c #6C445A",
"[  c #754957",
"{  c #7C4E5A",
"}  c #6C535D",
"|  c #75505C",
" . c #484266",
".. c #47406A",
"X. c #49436B",
"o. c #4F496C",
"O. c #5D4360",
"+. c #554A66",
"@. c #4D4771",
"#. c #524B73",
"$. c #554E7A",
"%. c #585279",
"&. c #5A537B",
"*. c #624661",
"=. c #694762",
"-. c #654C64",
";. c #6A4B63",
":. c #684E69",
">. c #734E62",
",. c #695267",
"<. c #6C526A",
"1. c #745265",
"2. c #795867",
"3. c #73556A",
"4. c #6A5874",
"5. c #745A75",
"6. c #765C75",
"7. c #795D74",
"8. c #765D78",
"9. c #7B6267",
"0. c #7B647A",
"q. c #844446",
"w. c #894646",
"e. c #854947",
"r. c #8D4947",
"t. c #83454A",
"y. c #854A4A",
"u. c #8D4949",
"i. c #934947",
"p. c #954B49",
"a. c #984D4B",
"s. c #895447",
"d. c #965649",
"f. c #95514D",
"g. c #9D5D49",
"h. c #854F51",
"j. c #8A5554",
"k. c #87575B",
"l. c #9A5C59",
"z. c #8A6248",
"x. c #9B6649",
"c. c #94665F",
"v. c #A5694C",
"b. c #AC7550",
"n. c #835A67",
"m. c #825C65",
"M. c #89666D",
"N. c #936361",
"B. c #866876",
"V. c #8D6B71",
"C. c #916C73",
"Z. c #8D747C",
"A. c #95747B",
"S. c #98777A",
"D. c #A46F63",
"F. c #AF804D",
"G. c #5C5581",
"H. c #635D83",
"J. c #645D89",
"K. c #666087",
"L. c #6A6589",
"P. c #6A638D",
"I. c #7A6985",
"U. c #7F7288",
"Y. c #6C6691",
"T. c #6F6892",
"R. c #726B94",
"E. c #746D99",
"W. c #7B7396",
"Q. c #7C75A0",
"!. c #846B85",
"~. c #897585",
"^. c #9A7C81",
"/. c #877C97",
"(. c #A07F82",
"). c #837DA4",
"_. c #867FAB",
"`. c #9C8488",
"'. c #968590",
"]. c #A28385",
"[. c #A58788",
"{. c #A48C8C",
"}. c #A98C8A",
"|. c #A6908B",
" X c #AE938D",
".X c #B0948E",
"XX c #A18B94",
"oX c #A38D94",
"OX c #AC9392",
"+X c #AB9597",
"@X c #B29995",
"#X c #B49B95",
"$X c #BCA39A",
"%X c #B9A59D",
"&X c #8780AC",
"*X c #8A83AF",
"=X c #8E88AF",
"-X c #8C85B1",
";X c #8F89B1",
":X c #928BB6",
">X c #948DB9",
",X c #9790BB",
"<X c #9B94BB",
"1X c #9992BC",
"2X c #A99CA1",
"3X c #AEA1A6",
"4X c #BFACA5",
"5X c #B1A4A8",
"6X c #C1AB9F",
"7X c #C2AEA5",
"8X c #C7B4A7",
"9X c #CBBBAC",
"0X c #CCBBAC",
"qX c #9F98C3",
"wX c #A19AC5",
"eX c #A29BC5",
"rX c #A59EC9",
"tX c #A6A0C7",
"yX c #A7A0CC",
"uX c #A8A1CD",
/* pixels */
"eXeXeXeXeXeXeXeXeXrXuXuXuXuXuXuXuXuXrXrXrXrXeXqXeXrXrXrXyXuXuXuXuXuXrXeXeXeXeXeXeXqXqXqXeXeXeXqXeXrX",
">X>X>X>X>X>X>X:X-X*X-X:X,X,X,X,X,X,X>X>X>X:X*X_.*X:X>X>X,X1X1X1X1X1X>X*X&X*X;X:X:X:X:X:X:X:X:X:X*X_.",
"E.E.E.E.E.E.E.R.G.#.@.$.T.R.R.W.W./.XX2X5X3X2X2X2X3X3X5X3X5X5X2XXXoX/.H.&.$.J.T.T.T.T.T.T.T.T.T.G.@.",
"T.T.T.T.T.T.T.Y.$...E X.L./.'.%X@X%X8X9X0X0X0X0X0X0X0X9X0X0X0X9X8X8X4XOX~.4.H.P.Y.Y.Y.Y.Y.Y.T.P.$.E ",
"T.T.T.T.T.T.T.Y.&.@.4.U.`.#X#X%X7X7X0X0X9X9X9X9X9X9X9X9X9X0X9X0X9X9X0X6X#X#X`./.W.T.T.T.T.T.T.P.$...",
"P.P.Y.Y.P.P.Y.P.U.~.{..X X.X#X%X7X4X4X4X4X4X4X4X4X4X4X4X4X4X4X4X4X4X4X4X7X7X.X X{.'./.R.T.T.T.P.$.E ",
"P.P.P.P.P.P.T.'. X.X X#X#X XoXZ.3.-.-.-.-.-.;.;.,.,.;.:.;.;.;.;.;.;.;.3.Z.+X#X#X@X.X X'.R.T.T.P.$.E ",
"P.P.P.P.P.W.`. X X#X@X}.A.<.~ ~ ~ A m ! ~ D F F F ~ F F F F F F F F F F ~ =.B.^.`. X.X X{.W.Y.P.$.E ",
"$.$.$.$.U.{. X X}.S.7.;.~ F ~ ~ ~ ~ ~ ~ ~ F F F F F F F F F F F F F ~ ~ ~ ~ ~ ~ >.^.#X X X~.&.$.X.E ",
"E E E E ~..X X[.B.;.~ F ~ ~ F B b h 5 4 4 3 3 3 3 4 3 3 3 3 4 3 4 4 n ~ *.*.~ ~ ~ *.7.}.#X~.R E E l ",
"E E E E !.(.B.3.` ~ ~ ~ ~ D 5 & % X . O X O O O O O O O O O O . . + & j D ~ ~ ~ ~ ~ ` 2.`.Z.l l l l ",
"P.P.P.P.0.1.~ ~ ~ ~ ~ ~ B 1 & 0 v * = e r r r r q q e e e e r = $ v w & < m F ~ ~ ~ ~ F ;.0.J.J.J.J.",
"qXqXqXqX~.` ~ ~ ~ ~ ~ n < = r U w.i i q.u.i.u.i.P i / / U q.w.H u ) / u @ % n ~ ~ ~ ~ ~ =.!.qXqXqXqX",
"eXeXeXeX~.` ~ ~ ~ ~ D < = v q.p.i.P H w.p.r.r.p.a t q.p.i.r.p.Y H q.i.w.i $ & A ~ ~ ~ ~ =.!.eXrXrXrX",
"1X1X1X1XI.` O.O.O.D 4 & M ( h.j.h.K ^ j.j.j.j.l.[ ^ l.l.l.l.l.[ ^ j.j.y.) r # 1 A ~ O.~ ` 0.<X1X1X1X",
"E.E.E.E.O.S Z m B m # 3 B.A.}.$X].].$X$X$X$X$X$X$X$X$X$X$X$X$X#X{.}.[.V.n.] $ O z m m Z Z +.E.R.E.E.",
"P.P.P.P.5.S c c n z O 5 ;.3.S. X X X.X X X X XZ.B.[..X X X X.X[.C.1.] n.2.Z + O z c c c Z 4.P.P.P.P.",
"T.T.T.T.8.=.F ~ ~ A # 5 B.+X@XS.^. X.X.X.X@X`.oX@X}..X.X.X.X X.X}.OXXX2.;.m + # A ~ ~ ~ ;.8.P.Y.Y.Y.",
"P.P.P.P.8.;.~ F ~ C # & N >.1.n.2.n.V.V.V.V.M.C.A.C.V.V.V.V.V.V.n.1.>.] Z h + # B D D ~ =.7.P.Y.Y.Y.",
"P.P.P.P.8.;.~ ~ ~ B #   $ 6 q q q 6 2 q q q w w q q q q q q q q q 0 0 q : = + # n m B ~ =.7.P.Y.Y.Y.",
"P.P.P.P.8.;.~ ~ ~ C # X : e i s t : 2 i L L L H 0 e J s s p H e w s s p K e + # B D D ~ =.8.P.P.P.P.",
"G.G.G.G.5.;.~ ~ ~ C # O q J u.q./ t t y.u.t.w.q.i H q.p.w./ / H H q.u.q./ J = & B D D ~ =.5.&.&.&.&.",
"X.X...X.:.;.~ ~ ~ C # O e U r.r.i.I Y a.p.i.u.w.H i w.p.w./ q.P J r.p.u.u.t.: % B ~ ~ ~ =.<.E E E E ",
"E E E E :.;.~ ~ ~ C # O r q.q.w.a.Y ) f.p.p.p.i.P P i.p.i.q.w.U ( g.p.f.f.q.- # B ~ ~ ~ =.<...E ....",
"&.&.&.&.5.;.~ ~ ~ C # O q I / y.f.I e.g.i.p.p.a.I I p.p.i.u.p.U ( g.a.f.a.U - # B ~ ~ ~ =.3.&.&.#...",
",X,X,X,X!.=.~ ~ ~ A # O q L L ) p.U s.g.p.p.p.a.I I p.u.y.y.u.) Y j.y.y.u.U = # B ~ ~ ~ =.!.<X:XH.R ",
"rXrXrXrX5.S S Z Z m # O w ) w.w.p.U s.x.p.p.p.p.P P w.k.S.S.S.S.A.S.S.S.m.7 . + n Z Z S S 4.eX<XK.R ",
"eXeXqX1X!.N z z z h O + t w.p.p.p.q.x.v.i.p.p.w.H I q.{ 1.} Z.[.[.Z.} >.k.t X X h z z z N !.<X>XK.R ",
"rXqX).R.0.;.~ ~ ~ C # O u w.w.u.p.q.x.v.p.p.p.U 0 p s.{ 2.,.Z.`.S.^.1.2.{ J - # B ~ ~ F ;.0.).W.&.R ",
"rXqXW.P.8.;.~ ~ ~ C # O u / / w.p.q.x.v.i.p.p.I @ 9 s.{ 1.m } OXOX9.b ;.{ J - # B ~ ~ ~ ;.7.P.P.#.R ",
"rXqXQ.P.8.;.O.~ ~ C # O u / / w.p.U z.v.i.p.p.U 0 f g.[ n x } 2.9.1.m z ] I - # B ~ ~ ~ ;.7.L.K.#.R ",
"rXqXQ.P.8.;.! A D B # + u w.q.w.p.P I f.p.p.p.w.i _ v.) ;.`.Z.z z 9.|.1.[ U - # B ~ ~ O.;.8.T.L.#.R ",
"rXqXQ.P.8.;.D B A B # X r w.w.r.p.P H q.p.p.p.p.P _ x.U n.#X].| | S.$XM.Y U - # B ~ O.*.;.7.T.P.#. .",
"rXqXQ.P.8.;.F F D B #   7 w.p.p.p.P e J q.u.p.p.P s.v.p.) 2.}.#X$X`.} ( p.U - # A *.*.~ ;.8.T.L.#. .",
":X-XY.G.5.;.~ ~ ~ B #   7 w.p.p.p.P G H L w.p.p.I z.b.p./ u M W W b w q.a./ - & D O.~ F =.5.H.H.#.R ",
"#.$.X...<.;.~ ~ ~ B #   e w.p.w.w.U Y y.( w.p.p.q.x.b.i.u./ s r q p q.p.d.s.- % A ~ ~ ~ =.<.X. . .R ",
"E E E E :.;.~ ~ F B # . w q.p.q.q.y.s.d.w.u.p.p.q.x.v.q.P U p.U v U i.u.g.s.2 # C ~ ~ ~ ;.,.R R R R ",
"#.#.#.#.<.;.F O.F C # X : I r.q.y.t.d.g.i.i.i.w.J e.g.w.a P p.I i q.q.q.f.( - # B ~ ~ ~ ;.<.#.@.o.o.",
"-X-X-X-X8.` O.~ F n + 1 ^ [ { m.N.m.c.D.c.c.N.k.| c.D.D.N.N.D.k.| N.N.N.N.^ * + n F ~ *.` 8.=X:X;X;X",
"eXeXeXeX+.x m c z ; X W A.S.OX%X$X$X$X$X$X$X$X$X$X$X$X$X$X$X$X$X@X{.OX@X].} + X ; h c m x +.eXtXtXtX",
"eXeXeXqXI.Z m m m z + 5 3.1.M.]. X X X X X X X`.`. X X X X X X X}.9.} M.n.S O O z m B m N 0.<XeXeXeX",
"_._._.&X!.;.~ ~ ~ A % z 3.oXOXA.S.}..X.X.X.X X7X7X X.X.X.X.X.X}.A.`.XXn.1.m O # B ~ O.~ ;.B.).).).).",
"T.T.T.T.8.;.~ ~ ~ A > 5 T ] ] { | | m.2.m.m.m.n.M.m.m.m.m.m.m.| T ] ] T T z O # C ~ ~ ~ =.7.P.P.P.P.",
"P.P.P.P.8.;.~ ~ ~ C % @ 0 0 q 0 q : 2 0 : 6 6 6 2 0 0 0 0 0 6 : : 0 0 0 0 : O # B ~ ~ ~ =.6.P.P.P.P.",
"P.T.T.T.8.` ~ ~ ~ C # O g d.q.q.q.w f z._ ( ( ( L ( e.I I I I t q s _ ( I r O # C ~ ~ ~ =.6.P.P.P.P.",
"T.T.T.T.8.=.~ ~ O.C # @ z.F.x.d.d.7 , f f d d 9 7 g x.x.v.x.g.s @ , d 9 7 2 O # C ~ ~ ~ =.8.P.P.P.P.",
"P.P.P.P.:.D A Z A n # o 8 d y 8 7 B +.o.o.+.+.+.j , 8 8 y 8 8 , h +. .k h 4 # > n A Z A D :.P.L.L.L.",
"J.J.J.J.H.V 4 4 4 < < Q R././.L.&.4.P.K.K.P.P.P.J.&.&.&.&.&.&.&.H.P.J.#.R R L.K.j j 4 4 V H.K.K.K.K.",
"X.X.X.X.X.X. . . . . .X.#.&.&.#.#.#.#.#.#.#.#.#.#.#.#.#.#.#.#.#.#.#.#.o.X.X.#.&.#.#.o.o.#.#.#.#.#.#.",
"R R R R R R R R  .R R R R R R R R R R R R R R R R R R R R R R R R R R R R R R R R R R R R R R R R R "
};
