/* XPM */
static char *_1488590ec2a79b4071cf143ed4403ee[] = {
/* columns rows colors chars-per-pixel */
"50 50 215 2 ",
"   c #392C24",
".  c #393727",
"X  c #3F372A",
"o  c #651A1F",
"O  c #541821",
"+  c #5C1D25",
"@  c #611D22",
"#  c #5E2426",
"$  c #592827",
"%  c #5E232B",
"&  c #542C2B",
"*  c #5B2C2D",
"=  c #423126",
"-  c #44342B",
";  c #4C332C",
":  c #4C3C2F",
">  c #56352C",
",  c #5D2931",
"<  c #4D3532",
"1  c #493D31",
"2  c #543333",
"3  c #5A3233",
"4  c #533C35",
"5  c #533D3A",
"6  c #5B3C3A",
"7  c #662127",
"8  c #6D2227",
"9  c #63242C",
"0  c #69262D",
"q  c #652A2E",
"w  c #6B2A2E",
"e  c #73262C",
"r  c #72282E",
"t  c #662531",
"y  c #692433",
"u  c #652C33",
"i  c #6B2C33",
"p  c #6A2F39",
"a  c #722D34",
"s  c #792E34",
"d  c #712F3A",
"f  c #643036",
"g  c #6B3137",
"h  c #67333A",
"j  c #6A313A",
"k  c #673938",
"l  c #6C393E",
"z  c #743136",
"x  c #7A3237",
"c  c #74333B",
"v  c #7B353B",
"b  c #763A3D",
"n  c #7D393E",
"m  c #3C4A32",
"M  c #44402D",
"N  c #56463C",
"B  c #49563A",
"V  c #68493F",
"C  c #75403F",
"Z  c #763941",
"A  c #7D3B42",
"S  c #7A3B44",
"D  c #52594A",
"F  c #5E5D51",
"G  c #664443",
"H  c #7C444A",
"J  c #774B49",
"K  c #675649",
"L  c #665D53",
"P  c #4E654B",
"I  c #4B694B",
"U  c #546C4F",
"Y  c #4A794D",
"T  c #52764D",
"R  c #4E6C51",
"E  c #5D6454",
"W  c #526A53",
"Q  c #586855",
"!  c #4D7E57",
"~  c #547B53",
"^  c #5B7658",
"/  c #69604F",
"(  c #666556",
")  c #666559",
"_  c #67715D",
"`  c #5A7C64",
"'  c #647B65",
"]  c #6C7F68",
"[  c #82343C",
"{  c #823A3E",
"}  c #833D43",
"|  c #8A3E44",
" . c #853F48",
".. c #8B3F49",
"X. c #933D4A",
"o. c #993D4B",
"O. c #854146",
"+. c #8C4246",
"@. c #85444C",
"#. c #8D444A",
"$. c #82494E",
"%. c #8C484E",
"&. c #914446",
"*. c #964846",
"=. c #92454A",
"-. c #99424D",
";. c #93494D",
":. c #994B4D",
">. c #8C4751",
",. c #844B51",
"<. c #8D4A52",
"1. c #8F4F58",
"2. c #924551",
"3. c #9C4352",
"4. c #944B51",
"5. c #994D53",
"6. c #955055",
"7. c #995258",
"8. c #A24454",
"9. c #3C884D",
"0. c #44824F",
"q. c #4D804C",
"w. c #558B4E",
"e. c #4B8254",
"r. c #488556",
"t. c #4C845A",
"y. c #528554",
"u. c #558B52",
"i. c #53855B",
"p. c #5B865C",
"a. c #56895E",
"s. c #5C9455",
"d. c #5D945B",
"f. c #5E9A58",
"g. c #619C55",
"h. c #629A5C",
"j. c #6BAE44",
"k. c #6EB249",
"l. c #70B445",
"z. c #72B64D",
"x. c #75B94C",
"c. c #79BD4E",
"v. c #65A357",
"b. c #6CAC57",
"n. c #66A35A",
"m. c #69A35B",
"M. c #65AA5B",
"N. c #6CAC5C",
"B. c #70AF5E",
"V. c #6FB05A",
"C. c #73B655",
"Z. c #76B954",
"A. c #79BD53",
"S. c #74B65C",
"D. c #75B959",
"F. c #79BD5B",
"G. c #4E8B62",
"H. c #558564",
"J. c #598563",
"K. c #588B66",
"L. c #5B866B",
"P. c #5E9461",
"I. c #5E9168",
"U. c #638166",
"Y. c #63826B",
"T. c #639762",
"R. c #659962",
"E. c #689074",
"W. c #69A260",
"Q. c #6CAA62",
"!. c #73AE68",
"~. c #74B562",
"^. c #77B567",
"/. c #7ABB62",
"(. c #7CBC6A",
"). c #7DC153",
"_. c #7DC15B",
"`. c #7EC162",
"'. c #81C555",
"]. c #82C55B",
"[. c #8ACE5F",
"{. c #82C463",
"}. c #87CA64",
"|. c #89CC62",
" X c #83C36C",
".X c #8CCE6B",
"XX c #8ED264",
"oX c #8FD268",
"OX c #92D665",
"+X c #94D965",
"@X c #92D56B",
"#X c #96DA6B",
"$X c #98DD6B",
"%X c #9ADE6E",
"&X c #84C172",
"*X c #93D574",
"=X c #97D973",
"-X c #99DD72",
";X c #9ADC7A",
":X c #9BE06B",
">X c #9DE26E",
",X c #9FE46F",
"<X c #9EE272",
"1X c #9FE471",
"2X c #9EE275",
"3X c #9EE179",
"4X c #A1E572",
"5X c #A0E475",
"6X c #A3E874",
"7X c #A5EA76",
"8X c #A2E679",
"9X c #A1E47D",
"0X c #A5E97B",
"qX c #A8EC7F",
"wX c #A4E681",
/* pixels */
"#X%X4X5X5X<X$X%X<X5X5X<X$X$X>X4X5X<X4X7X7X7X4X4X6X7X7X4X:X:X,X4X4X,X,X,X,X,X,X,X,X,X,X,X,X1X4X5X5X5X",
"<X5X5X<X%X%X<X5X5X<X%X%X<X2X5X5X5X5X5X5X7X6X5X4X4X4X4X4X4X,X>X>X,X4X4X4X4X4X4X4X4X4X4X4X4X4X5X5X5X8X",
"0X8X<X@X|.OX2XqX8X@X[.XX2X0X8X-X#X#X%X5X0X<X#XOXOX>X5X4X$X+X+X$X>X>X$XOXOX$X>X4X4X>X$XOXOX#X<X5XXXXX",
"3X-XoX_.x._.#X9X=X_.z.A.#X8X-X|._.Z.].-X0X#X).l.).#X5X#X'.c.'.[.%X%XOX).l.x.XX5X%X'.j.x.XX2X%XXXc.A.",
"9X;X.XF.Z.].=XwX=XF.k.F.=XwX=X}.F.z.].3XwX#XA.j.A.#X8X#X).x.'.XX<X<X#X'.z.c.OX0X<X].l.c.@X8X2X@Xx.x.",
";X*X.X`.F.{.*X;X*X`.D.{.*X;X*X}.{.F.{.*X;X@X_.Z.].@X=XoX].).].|.2X#X|.A.z.A.XX-X@X).z.x.|.#X#X@XZ.Z.",
"`.F.D.C.C.F.`.`.F.C.C.D.`.`.F.D.D.C.D.F.F.F.D.C.D.D.A.Z.Z.z.z.z.z.z.z.z.z.z.z.z.z.z.z.z.z.z.z.C.Z.Z.",
"D.C.C.C.D.F.D.D.C.C.D.D.D.D.C.C.D.D.D.C.C.C.D.F.D.C.k.z.C.Z.z.z.z.Z.Z.Z.Z.Z.Z.Z.Z.Z.Z.Z.Z.Z.D.D.D.D.",
"D.D.D.D.D.D.D.D.D.D.D.D.D.D.D.D.D.F.F.D.D.D.D.D.D.D.F.F.F.F._.F.D.D.F.D.F.F._._._.F.F.F.F.F.D.D.D.D.",
"D.D.D.D.D.D.D.D.D.D.D.D.D.D.D.D.D.S.D.D.C.C.D.C.D.D.F.F.F.F.F.D.C.C.D.D.C.D.D.C.C.C.D.D.D.C.C.C.D.D.",
"D.D.D.D.D.D.D.D.D.D.D.D.D.D.D.D.F.F.D.D.D.D.D.D.F.F.F.F.S.D.C.C.D.D.D.D.D.D.C.C.C.C.D.D.D.D.D.D.D.D.",
"~.~.~.~.~.S.D.D.D.D.D.D.S.~.~.~.~.S.S./.`._._.`./.S.S.~.~.B.N.S.S.D.F.F.`././././././.F.F.F.S.D.D.S.",
"h.h.h.h.h.n.b.C.D.D.D.V.n.f.u.u.s.s.v.S.F.D.D.S.N.g.s.d.d.d.f.v./.D.C.D.D.b.g.s.s.g.g.g.b.S.S.D.D.S.",
"Y y.i.Y Y s.B.F.D.C.S.N.s.e.e.a.i.y.s.~.`.F.F./.Q.s.y.a.a.i.a.f. XF.D.F.F.v.w.q.y.y.y.u.v./.(./.D.S.",
"! H.H.t.t.P.~.`./.S.~.!.R.i.i.K.H.i.T.^. X`.`.(.!.P.a.H.H.H.H.P.&XF.D.`. X~.d.i.p.p.i.u.v.^.(.S.S.S.",
"W Q Q W P ^ m.Q.M.M.n.h.p.R U ^ W I ~ R.Q.M.M.Q.R.~ R W W P I T !.v.g.Q.~.h.T P U U P I y.W.W.f.Q.Q.",
"3 3 3 2 < X ~ 0.9.9.0.~ B M ; ; = X B ^ y.0.0.t.p.m X 5 ; -   D J.r.0.r.t.i.. = 4 4 ;   W J.I.G.t.t.",
"y y y t , < ] H.G.G.J.' N > $ # $ 3 K _ U.L.L.E.] N & u , f 3 L Y.L.J.L.L.' 4 3 k j u 3 F ' Y.` Y.L.",
"j j c j l G ( Q W U E / V k z x b C J K ( Q ^ _ L N u t i d l G F E E E E L G f g g g k K ) ) ) ) ) ",
",.,.@.@.H J 4 : 1 : : > J O.=.;.;.%.b 3 ; - -   ; J 1.>.4.>.>.c 6 4 < ; < 6 H H @.>.1.,.6 N 2 2 2 3 ",
"H $.@.>.@.H k * & $ $ # O.+.=.=.=.=.n q * 3 3 & * H >...2.2.5.v u 3 * $ * f ,.@.@.<.1.1.k 3 % 9 u u ",
"$.$.%.#.#. .Z c z z z z +.+.=.=.=.=.[ a w i u u u @.%...=.o.3.} a g u q i d >.>.#.4.4.>.l g i a z v ",
"$.%.#.=.=...} } +.#.#.#.+.+.#.#.=.;.=.+.#.#.>.%.@.>.>.#.2.3.8.X.| %.%.%.2.#.7.4.X.-...#.@.@.>.2.4.4.",
"@.%.#.=.=.=.#.#.=.=.=.=.+.+.#.#.#.#.=.=.=.=.#.#.#.%.#.#.=.o.o.o.X.#.+.} =...4.4.-.-...#.@.} #.=.=.=.",
"@.#.=.=.=.=.=.=.=.#...+.+.+.#.#.#.+.=.=.=.=.} } O.#.=.=.=.=.-.-.=.=.#.+.| ..=.4.;.;.=.=.#.#.=.=.=.=.",
"#.#.=.=.=.=.=.=.#.x e s | +.#.#.#.+.+.=.;.| z i v =.4.=.+.=.-.-.;.#.| [ x [ #.4.=.=.=.=.=.=.=.=.s x ",
"#.=.=.=.=.=.=.=.+.r o 8 | +.&.=.=.=.+.=.=.} t 9 z +.;.&.| ..=.=.=...[ r e s | 5.=.=.=.=.=.=.=.=.r r ",
"=.=.=.=.=.=.=.=.#.s 8 s | +.+.=.=.=.&.+.+.{ i t z +.=.&.&.&.=.=.=...[ s e s | 5.=.=.=.=.=.=.=.#.w w ",
"=.=.=.=.=.=.#.+.+.+.+.+.+.+.+.=.=.=.=.&.+.} v v } =.*.*.:.:.=.=.=.&...{ [ { +.;.;.=.=.=.=.=.#.#.+.+.",
"=.=.=.#.#.#.&.#.#.+.+.+.#.#.+.+.=.=.=.&.&.+.+.+.=.=.:.:.:.:.;.=.=.=.=.=.+.+.=.;.=.=.=.=.=.=.;.;.4.4.",
"=.=.#.#.#.#.&.&.=.=.=.#.#.+.#.#.+.} +.=.&.&.=.;.=.&.=.=.=.| +.#.#.=.;.=.+.+.=.=.=.=.#.#.=.=.;.;.4.4.",
"=.=.#.#.#.#.#.&.=.=.=.=.#.#.+.+.O.} } #.&.&.=.=.=.&.&.+.} v { | #.#.#.=.+.| =.;.;.#.%.%.#.;.;.;.=.=.",
"=.=.+.z a v =.*.*.*.*.#.#.#.+.} a a v +.=.=.=.=.=.+.&.=.{ z z { ;.#.+.#.=.=.=.5.#.a + 0 O.5.5.;.=.=.",
"&.&.{ 7 7 x :.:.:.*.%.} #.*.#.{ @ @ a =.5.;.=.;.;.=.:.4.n 7 7 z ;.#.#.;.;.=.=.4.+.z 9 t A ;.4.4.#.#.",
":.:.+.s s v *.&.:.#.#.} #.#.=.| r a { =.;.+.| | +.+.=.=.{ w a } #.;.;.@.} } +.#.+.n z z } +.#.#.O.O.",
"*.&.&.#.;.+.&.+.+.s i i { +.*.;.*.=.;.;.=.| v a x } =.#.} } +.#.+.#.+.z t i } #.#.+.@.@.+.#.@.+.w w ",
":.*.*.:.:.+.+.+.+.i 9 i } +.#.*.5.5.;.=.=.+.x 0 w } =.#.+.;.4.;.} #.} t O 9 A 4.4.;.#.;.;.;.#.O.z z ",
"*.&.#.#.#.} #.*.O.a w z } #.#.#.#.#.#.=.;.=.n a z +.;.=.+.#.#.| | #.@.a % i } ;.;.#.} O.#.4.;.@.z z ",
"*.#.{ z i z { +.} { { O.+.+.} n 0 a v #.;.=.} } +.=.;.#.{ x x v +.4.4.O.A } =.4.+.n i c } ;.4.;.=.=.",
"+.+.n i 9 c } +.| #.+.#.#.#.@.} 7 0 v #.;.+.+.=.;.;.=.+.v 0 i v #.4.4.4.=.;.4.4.O.a 9 9 A 4.4.#.=.&.",
"+.+.} z i n } #.#.:.*.*.+.%.O.A a a z } } } +.;.=.+.+.+.v a a A O.} O.#.2.=.#.%.} z t i A +.+.} +.#.",
"x v v } } } z n { *.+.| v v v v @.} z i i n #.;.#.v v n } } } } a i z +.4.+.n c n A } } A v z z #.#.",
"i i v #.;.} 0 t x *.:.#.a 0 0 a 6.%.n 9 + a #.5.=.x 0 i } 4.%.O.9 9 i +.5.O.i 9 d @.5.%.n 0 0 s ;.;.",
"a a v %.;.O.i t a +.*.#.z t a n 4.%.A i 9 a +.4.;.v w w v ;.%.} 0 0 c @.>. .p t i } 4.#.n 0 w v ;.%.",
"{ { v a i c b A v z z n } n n n z z n } } A n z A } } v z n A } A A Z Z b b A A Z b n A } A A A A A ",
":.*.n 9 + t %.6.O.0 + t O.4.%.} 9 9 c >.7.%.i + i O.4.@.c 9 a A >.>.S i 9 i @.4.@.c t c @.>.%.Z u u ",
"7.;.O.q % u @.4.%.i 9 t O.>.%.A # 9 c %.4.@.i % w } 6.>.b 9 t b >.>.Z t % u @.4.@.b t u A %.@.Z i u ",
";.+.A c g u b n O.c g u c b A b 9 u g A A Z g u g Z @.@.Z p u g @.@.Z g u g A @.H c g u j S S c l l ",
"w w q u u u u w u g l g u q q g g u u u g g g u u g u u j p g p g g l g g j p p p j g g g p p j p p ",
"q q q u u u w w u g l g u q u f g u u u g g g u f g g g g j j g g g g g h h g g p p h h j g g g h j "
};
