/* XPM */
static char *c68c1c9a1e6a100e91e261b6731cb052[] = {
/* columns rows colors chars-per-pixel */
"50 50 67 1 ",
"  c #3C3463",
". c #3F3862",
"X c #413A66",
"o c #443D6B",
"O c #464067",
"+ c #474069",
"@ c #49426E",
"# c #4B4372",
"$ c #4F4871",
"% c #514A75",
"& c #534B7A",
"* c #58507F",
"= c #5D5584",
"- c #5F5882",
"; c #615986",
": c #655D8B",
"> c #676187",
", c #67608A",
"< c #6A638E",
"1 c #6D6593",
"2 c #6F6893",
"3 c #706896",
"4 c #736B9A",
"5 c #767097",
"6 c #77709A",
"7 c #79719F",
"8 c #7C74A3",
"9 c #7F78A4",
"0 c #817AA4",
"q c #857DAA",
"w c #8780AA",
"e c #8982AF",
"r c #8C84B2",
"t c #8E86B5",
"y c #8F89B0",
"u c #8F88B2",
"i c #8F88B4",
"p c #9088B7",
"a c #918AB6",
"s c #9189B8",
"d c #948CBB",
"f c #978FBE",
"g c #9890BF",
"h c #9A93BE",
"j c #9991C0",
"k c #9B93C2",
"l c #9C94C3",
"z c #9F97C6",
"x c #9F98C3",
"c c #A099C3",
"v c #A098C7",
"b c #A39CC7",
"n c #A49DC6",
"m c #A199C8",
"M c #A39CC8",
"N c #A49CCB",
"B c #A59DCC",
"V c #A79FCE",
"C c #A7A0CA",
"Z c #A8A0CF",
"A c #ABA5CC",
"S c #ACA5CF",
"D c #A9A1D0",
"F c #ACA5D1",
"G c #ACA4D3",
"H c #AFA8D1",
"J c #B2AAD9",
/* pixels */
"NNNNNNBNNBDGDDDDDDBBDBBmmBZDDDDDDDDmmNmmmmmmmmmmmB",
"ggggggjfssflzzzzzzjjjftrtfjjjzzzzzzttafgjjjjjjjfsr",
"22222222&oXo111111:::;&#%;11<121111%#%=<11111111%o",
"33333333&#o#222221111;%##;211232222#o#=222222222&o",
"22222222&###222221111;%X#;211242222#X#=222222222&o",
"11111122&###222211112:#X#;421342222#X#=222222222&o",
"<:<<<111=###222211112:%X#:442442222#X#=222222222&o",
"22222222=###222211112:%X#:442442222#o#=222222222&o",
"&&&&&&&&&###&&&&%%%%%%%%%%%%%%%%%%%#o#&&=*******oo",
"oooooooooooooooooooooooooooooooooooooo%XXXXXXXXXXX",
"XXXXXXXXXXXXXXXXXXXXXXXXXXXXXXXXXXXXXX.X          ",
"::::::::*###:::::::::::::::::::::::#Xo%==;;;;;;;;;",
"DDDDDDDDqXX#lDBzDDDDDDDDDDDDDDDDDDD&Xo8DDDDDDDDDDD",
"zzzzzzzzq##&jBNlBBBBBBBBBBBBBBBBBBB&.X8Dmmmmmmmmmm",
"mmmmvvvvq##&jZBzzzzzzzzzzzzzzzzzzzz&..7Dmmmmmmmmmm",
"444444441@X%jDmt3444333333333444333&#X8DNs83442124",
"1<111111=o.#jNvq2222222222222222222&oo9GBf11111111",
"22222222=oX#jmmq2222222222222222222%oX9mBf11111111",
"11111111=XX#jmmq2222222222222222222%oo9BBf11111111",
"11<<<111=XX#jmmq1111111111111111111%oo9JBf11111111",
"11112221=XX#BDBs2222222222222222222%oo9DBf11111111",
"=========XX#8981===================%oo3uqq;=======",
"oooo####oXXoooX .XXXooooooooooXXooo..ooXXXXXXXXXXX",
"X...XXXXXXXXo#oXXXXXXXXXoXXXXXXXXXX  XX@######@@@@",
"%%%%%%%%#############%.o#&#%%%%%%%%%%%%%%%%%%%%%%+",
"mmNmNNNNmmmmmmmmmmmmzr###tBBBBBBBBBBBBBBBBBBBNNN=X",
"mmNmmmBBmNBBBBBBBBBBGj#o#zJmmmmmmvvvvvmmvvvvvvvc;X",
"mmmmmmBBBBBBBBZZBBBBvdo#otzBBBBNmmmmmmmmmmmmmMvv,X",
"mm81448788888888888888o#oaMZr9qq9999999999999999&o",
"mm81222222223323444433o#@aMD913111111111111111<<&o",
"mm81222222222222222222o#@aMZq:31<<<111111111<<<<&o",
"mm81232221111111111111o#oibNe<431111111122222222&o",
"mm81222221111111111111o#XuCne<633333333322222222&o",
"mm81222222222222222222o#ouHAe<532232222222222222&o",
"gj2=::::::::::::::::::o#@7ue0;<>>>>>::::::::::::&o",
"o&Xo####################@&%+OOOOOO+++++++++++++++o",
"@@@@oo#oX###############@@@@@@@@@@@@@o++o+++oooooo",
"@@@@@o#oo###oooooooooooooooOOOOOOooooooooooooooooo",
"ffffffffq###ttttttttttttiuuuuuuuuuu#oo<ggggggggggg",
"vvmmvvvvr###BBBBBBBBBBBBNNNnnnnnnnN-.o6HNNCCCCNNNN",
"BBNNNBNNq###BmmmmBBBBBBBBNCNNNNCNNN&.X8SZAcNNnnnnn",
"rqqeeree4oo#mmzsqqqqqqqqqqqqqqqwqqq&XX8Sbh0wwqqqqq",
"222222221Xo#mzzq11111111<<<<<<<<<,<%XX7Sgu,21<<<<<",
"11::::<<:XX#zlz922222222222222221<1%XX8Gxa:11<<<<<",
"22222222;oX#zjz8222222221111111111<%XX8Gxa:11<<<<<",
"22222222;@X@jjm811111111111111111<<$XX8Gxa:11<<<<<",
"11111111;@X@ggN8<<<<<<111111<<<<1<<$XX8Sxa:11<<<<<",
"<<<<<<<<-@o#ggN8,,<<<<<<<<<<<<<<<<<$XX8Sxa:11<<<<<",
"oooooooo+++@@$$%%%%%%%%%%%%$$$$$$%%%%%%%%%%%%%%%%%",
"ooooooOoOoooXXXXXXXXXXXXXXXXXXXXXXXXXXXXXXXXXXXXXX"
};
