/* XPM */
static char *result[] = {
/* columns rows colors chars-per-pixel */
"50 50 196 2 ",
"   c #020202",
".  c #090503",
"X  c #050509",
"o  c #0B0B0B",
"O  c #0C0801",
"+  c #140303",
"@  c #1B0506",
"#  c #150C09",
"$  c #191307",
"%  c #05081A",
"&  c #050717",
"*  c #141414",
"=  c #1B1B1B",
"-  c #240405",
";  c #2A0C0D",
":  c #250A0A",
">  c #340E0E",
",  c #3A0E0D",
"<  c #320606",
"1  c #281D07",
"2  c #390F10",
"3  c #300F10",
"4  c #281516",
"5  c #3A1414",
"6  c #230F10",
"7  c #37290D",
"8  c #2B2217",
"9  c #2F230A",
"0  c #0A0D25",
"q  c #0D1033",
"w  c #13173B",
"e  c #1E1F22",
"r  c #242424",
"t  c #2C2C2C",
"y  c #282828",
"u  c #2D2E34",
"i  c #333333",
"p  c #3B3B3B",
"a  c #373939",
"s  c #303034",
"d  c #4D0909",
"f  c #490909",
"g  c #4A1414",
"h  c #431213",
"j  c #5E191A",
"k  c #551415",
"l  c #500909",
"z  c #7D0D0E",
"x  c #651B1B",
"c  c #751E1E",
"v  c #7D1E1E",
"b  c #780E10",
"n  c #45340C",
"m  c #4C390E",
"M  c #652E18",
"N  c #7E1E20",
"B  c #5D2526",
"V  c #712E2E",
"C  c #5B4415",
"Z  c #765912",
"A  c #755813",
"S  c #694C16",
"D  c #584929",
"F  c #534D3D",
"G  c #775D31",
"H  c #181844",
"J  c #151B50",
"K  c #211940",
"L  c #1B225C",
"P  c #24274D",
"I  c #1A2362",
"U  c #1B246B",
"Y  c #1E2775",
"T  c #27307A",
"R  c #444343",
"E  c #4B4B4B",
"W  c #494846",
"Q  c #494A57",
"!  c #535353",
"~  c #5C5B5B",
"^  c #555045",
"/  c #68635B",
"(  c #5B5B60",
")  c #5F6060",
"_  c #646464",
"`  c #6B6B6B",
"'  c #696767",
"]  c #7E796D",
"[  c #6F7070",
"{  c #737273",
"}  c #7B7B7B",
"|  c #7A7778",
" . c #716F70",
".. c #830D0D",
"X. c #831E1E",
"o. c #8B1C1B",
"O. c #9C1514",
"+. c #951C1B",
"@. c #AB0F0E",
"#. c #AA100E",
"$. c #A51515",
"%. c #AA1514",
"&. c #B41313",
"*. c #BB1212",
"=. c #821F20",
"-. c #8B3621",
";. c #813E3E",
":. c #903C3C",
">. c #B73635",
",. c #A33737",
"<. c #C50D0D",
"1. c #C80C0C",
"2. c #C4100F",
"3. c #C31110",
"4. c #C52926",
"5. c #8F6913",
"6. c #896313",
"7. c #9B741C",
"8. c #936D16",
"9. c #A4791B",
"0. c #9D7534",
"q. c #AA7826",
"w. c #A07533",
"e. c #C2403F",
"r. c #834D4D",
"t. c #887344",
"y. c #897750",
"u. c #81797B",
"i. c #B46261",
"p. c #B05857",
"a. c #CC4A49",
"s. c #C84645",
"d. c #D17977",
"f. c #B0851F",
"g. c #B18720",
"h. c #C9981C",
"j. c #D29E1D",
"k. c #D4A11D",
"l. c #988258",
"z. c #B68D45",
"x. c #B89953",
"c. c #B89147",
"v. c #8D8165",
"b. c #A18E6B",
"n. c #CFA84E",
"m. c #DDB24B",
"M. c #232F8A",
"N. c #222C84",
"B. c #25308C",
"V. c #27349C",
"C. c #263296",
"Z. c #2A39AC",
"A. c #2837A9",
"S. c #323EA7",
"D. c #2B3BB1",
"F. c #2D3FBF",
"G. c #3B49BE",
"H. c #5F5A8D",
"J. c #635B89",
"K. c #635B87",
"L. c #7F7F80",
"P. c #4A4FA7",
"I. c #2E41C6",
"U. c #2F42CC",
"Y. c #3044CE",
"T. c #3041C3",
"R. c #2F45D0",
"E. c #807F80",
"W. c #7F8080",
"Q. c #828282",
"!. c #8C8C8C",
"~. c #888786",
"^. c #95938E",
"/. c #939393",
"(. c #9C9C9C",
"). c #999796",
"_. c #908C8A",
"`. c #A09F9F",
"'. c #A2A2A2",
"]. c #ABABAB",
"[. c #B5B3AE",
"{. c #B3B3B3",
"}. c #BBBBBB",
"|. c #BCB8B7",
" X c #C5C5C5",
".X c #CCCCCC",
"XX c #C8C4C3",
"oX c #D3D3D3",
"OX c #DBDBDB",
"+X c #DBD7D5",
"@X c #E1CCC9",
"#X c #E2DEDC",
"$X c #E2DAD5",
"%X c #E6E2D9",
"&X c #E3E3E3",
"*X c None",
/* pixels */
"*X*X*X*X*X*X*X*X*X*X*X*Xo   *X*X*X*X*X*X*X*X*X*X*X*X*X*X*X*X*X*X*X*X*X*Xo X *X*X*X*X*X*X*X*X*X*X*X*X",
"*X*X*X*X*X*X*X*X*X*X*X  *X*X  *X*X*X*X*X*X*X*X*X    X *X*X*X*X*X*X*X*XX *X*XX *X*X*X*X*X*X*X*X*X*X*X",
"*X*X*X*X*X*X*X*X*X*X*X*X*Xo *X*X*X*X*X*X*X    5 g g 5     *X*X*X*X*X*X*Xo *X*X*X*X*X*X*X*X*X*X*X*X*X",
"*X*X*X*X*X*X*X*X*X*X*X*Xo   *X= = *X*X*X= *   h c c g   * = *X*X*X= e *Xo   *X*X*X*X*X*X*X*X*X*X*X*X",
"*X*X*X*X*X*X*X*X*X*X*X*X*X*X  | }.y   o (.'.o . O #   * '.(.o   y }.| X *X*X*X*X*X*X*X*X*X*X*X*X*X*X",
"*X*X*X*X*X*X*X*X*X*X*X*X*X*X  ` }. .R   ` u.5 h l d f 5 u.`   i [ }.`   *X*X*X*X*X*X*X*X*X*X*X*X*X*X",
"*X*X*X*X*X*X*X*X*X*X*X*X*X*X  E /.oX`.o   @ N $.<.3.%.c @   o ~.+X/.E   *X*X*X*X*X*X*X*X*X*X*X*X*X*X",
"*X*X*X*X*X*X*X*X*X*X*X*X*X*X  * t /.].].t @ c $.2.1.$.c + u ].].!.u o   *X*X*X*X*X*X*X*X*X*X*X*X*X*X",
"*X*X*X*X*X*X*X*X*X*X*X*X*X*Xr e y ( !..Xp @ c $.2.1.%.c # p .X(.) r r r *X*X*X*X*X*X*X*X*X*X*X*X*X*X",
"*X*X*X*X*X*X*X*X*X*X*X*XX = } !.} = i ~.y $ c $.2.2.$.c + y !.R = } ~.u.e X *X*X*X*X*X*X*X*X*X*X*X*X",
"*X*X*X*X*X*X*X*X*X*X*X*X  * W.v.t./ ! s o @ c $.1.2.%.c + o u E _ t.v.~.=   *X*X*X*X*X*X*X*X*X*X*X*X",
"*X*X*X*X*X*X*X*X*X*X*X*Xy i !.y.A ] !   * 4 x O.3.*.$.x 4 o   W ] A y.).a y *X*X*X*X*X*X*X*X*X*X*X*X",
"*X*X*X*Xo   *X*X*X*X*X  /.oXOX' O o o   ) ` # k o.o.j # [ _   X o O ` OXoX/.. *X*X*X*X*X  *X*X*X*X*X",
"*X*X*X*X! ~ *X*X*X*X*Xp [ ).OX_   9 7 7 ^ R X ; g g 3   R E 7 7 9   ` %X(.{ p t *X*X*X*X~ ! *X*X*X*X",
"*X*X*X  !..Xr *X*X  t !.p i oX_   Z 8.8.7 o # .       # o 7 8.8.Z O ' OXp p !.i   *X*Xo }.!.  *X*X*X",
"*X*X*X  !.oX= *X*X  t !.]. X&X_ . Z 7.h.x.x.g.m     n f.x.x.h.9.Z   ' &X.X].!.i   *Xo   {.!.  *X*X*X",
"*X*X*Xo ` } E R *X  t !.(.].OX!.F C 6.j.m.n.7.D t t D 7.n.m.k.8.C W /.&X{.).!.i   *XR R { { o *X*X*X",
"*X*X*X*Xo =  X|     u ~.i y oX&X.Xy n h.j.q.# ! _._.~ $ 9.k.j.C t .X&XoXs s !.i     } oXi   *X*X*X*X",
"*X*X*X*Xo =  X|     t !.).].OX&X+X} ! n n D ).{..X.X{./.D n n F } oX&XOX].).!.a     | OXt   *X*X*X*X",
"*X*X*X*X*X= ].| t X t ~.]. XOX&XOX`.) X & Q OX@X|.}..XOXR *   ! `.OX&X&X X].!.i X t | {.t *X*X*X*X*X",
"*X*X*X*X*X*Xo { oXi y ~.i u oX&XOX(.) o ) (.#X .o o ) OX/.) X ! `.OX&XoXa i !.s i oX` * *X*X*X*X*X*X",
"*X*X*X*X*X*X  p [ = t !.| ~.+X&XOX(.) X ' '.#X].[ [ (.OX`.' X E `.OX&XOX!.| !.i = [ a   *X*X*X*X*X*X",
"*X*X*X*X*X*X        y } ]..X&X&XOX(.) o ' '.OX%X@X@X+XOX`.' X E `.OX&X#XoX].} t         *X*X*X*X*X*X",
"*X*X*X*X*X*X          * = p oX&XOX`.) o ` '.&Xb.4.4.d.OX'.`   ! `.OX&XOXW * *           *X*X*X*X*X*X",
"*X*X*X*X*X*Xi W ~ ! E a o e ]. X}.)._ o R {  Xi.#.#.p.|. .R   ! (.}. X}.r % i E ~ ! ! ~ *X*X*X*X*X*X",
"*X*X*X*Xo * } |.&X&X.X!.i * } !.!.!._     e Q.r.v v r.Q.e     ! !.!.!.W.= s !. X&X&X&XoXt   *X*X*X*X",
"*X*X*X*XX * } }.&X&XOX XR   t t i Q._   U T u B v v B s T U   ! v.a t t X R  XOX&X&X X`.r   *X*X*X*X",
"*X*X*X*X*X* ( )..X.X.X.XR X q q w ( Q w A.S.8 M -.-.M 8 S.A.q Q ~ w q q   R .X.X.X.X)._ = *X*X*X*X*X",
"*X*X*X*X*X*X  E /.!./.!.u % D.I.D.0 H G.Y.P.w.q.q.q.q.0.P.Y.T.L 0 D.Y.D.0 u !./././.R   *X*X*X*X*X*X",
"*X*X*X*X*Xe } _ a a p p P U I.R.Y.N.C.U.Y.T.J.K.K.J.J.H.T.Y.U.V.M.I.Y.I.Y P p a a p _ ~.u *X*X*X*X*X",
"*X*X*X*Xe = .X~.e e = * L B.A.Z.D.D.D.D.F.I.I.I.I.I.I.I.T.I.D.D.D.D.D.Z.M.L * = = = ~.OXt   *X*X*X*X",
"*X*X*X*Xp =  XOX.X.X}.W.s X % % % % % % Y V.V.V.V.V.V.V.V.Y % % & & & & & u W.{.oX.XOXoXt   *X*X*X*X",
"*X*X*X*X= =  X{.} Q.{ E =   > 2 2 2 , 2 K I C.U J J U M.I H 5 , , , , > . = E [ W.} {.+Xt   *X*X*X*X",
"*X*X*X*X*X=  X|           @ c X.=.=.X.X.: % B.H X X H M.% - X.X.X.X.X.v @           { oXt *X*X*X*X*X",
"*X*X*X*X*X*Xi R E E R r o @ $.*.&.&.&.&.< 0 B.N.Y Y N.M.0 < &.*.&.&.*.#.: o 8 p E E R a *X*X*X*X*X*X",
"*X*X*X*X*X*Xr R ` ' ~ R e 6 b ..........- & L I I I U J & - ..........z 6 e R ~ ` ' R r *X*X*X*X*X*X",
"*X*X*X*Xo o ! ' ' _ ' ' F r X   . . . +                     . .   .   o r F ' ' _ _ ' _ *   *X*X*X*X",
"*X*X*X*X= o ~ ' _ _ ! r y y X ! ^.G S m $ @ ..........b @ $ m S G ^.!   y y r E ' _ ' ~ *   *X*X*X*X",
"*X*X*X*X= o ! _ ' ' E o r y   W.%Xc.9.5.1 - O.@.#.@.@.#.- 1 6.7.z.%XQ.  r t $ W ' _ _ ~ *   *X*X*X*X",
"*X*X*X*Xo o t E ' ' _ ~ R y   W.$Xz.7.6.1   + O + + + +   1 6.7.z.$Xu.  y P ~ _ ' ' E u o   *X*X*X*X",
"*X*X*X*X*X*X* u E E W E y e W ~.[.b.l.y.8 = } } W.W.} { * 8 y.l.b.[.!.E r r W E W W t * *X*X*X*X*X*X",
"*X*X*X*X*X*X  * y y t y o * } Q.Q.Q.Q.W.e s %X&X&X&X&XOXu r W.~.Q.Q.Q.} = o t t t t =   *X*X*X*X*X*X",
"*X*X*X*X*X*X*X* X X X .     * * * * * *   i OX&X&X&X&XOXt   * * * * * *     X X X o * *X*X*X*X*X*X*X",
"*X*X*X*X*X*X*X*XX   * i i p E ! ! ! E i i E !./.).)./.!.E i i R ! ! ! ! a i i *     *X*X*X*X*X*X*X*X",
"*X*X*X*X*X*X*X*X*X  t ~.!.).+X%XOX%XXX!.^.{ o         o | !.!.|.%X#X#XOX(.~.!.i   *X*X*X*X*X*X*X*X*X",
"*X*X*X*X*X*X*X*XO g c ;.,.>.a.a.a.a.s.>.:.V j ;     : j V :.>.e.a.a.a.a.>.,.;.c g o *X*X*X*X*X*X*X*X",
"*X*X*X*X*X*X*X*X. x X.o.&.<.1.1.<.<.<.<.O.o.X.2     > v o.O.<.<.*.<.<.<.1.&.+.X.j   *X*X*X*X*X*X*X*X",
"*X*X*X*X*X*X*X*X. x +.*.<.2.<.2.2.2.2.2.2.%.X.2     > =.&.*.<.<.1.2.<.<.2.<.*.+.j . *X*X*X*X*X*X*X*X",
"*X*X*X*X*X*X*X*X*X3 , d l l d d d d d d d f > : *X*X6 > f d d d d d d d d d f , 3 *X*X*X*X*X*X*X*X*X",
"*X*X*X*X*X*X*X*X*X                            *X*X*X*X                            *X*X*X*X*X*X*X*X*X"
};
