/* XPM */
static char *_9d9e53d2e73402580394fd4f77b0c6aXOsNqGgpQimmMz2y[] = {
/* columns rows colors chars-per-pixel */
"16 16 7 1 ",
"  c None",
". c black",
"X c #FFC2A1",
"o c #E64539",
"O c #FF8933",
"+ c #AD2F45",
"@ c white",
/* pixels */
"                ",
"    ........    ",
"   .XXXXXXXX.   ",
"  .oOOOOOOOOX.  ",
" .oOOXXXXXXOOX. ",
" .oO+OOOOOOXOX. ",
" .oO+OOOOOOXOX. ",
" .oO+OOOOOOXOX. ",
" .oO+OOOOOOXOX. ",
" .oO+OOOOOOXOX. ",
" .oO+OOOOOOXOX. ",
" .oOO++++++OOX. ",
"  .oOOOOOOOOX.  ",
"   .oooooooo.   ",
"    ........    ",
"                "
};
