/* XPM */
static char *dafb8cc6b368421cd0d21b42dec84070rq2kxCmUeE15ZN6p[] = {
/* columns rows colors chars-per-pixel */
"50 50 131 2 ",
"   c #533523",
".  c #543827",
"X  c #553C2B",
"o  c #593E2E",
"O  c #593F30",
"+  c #59402F",
"@  c #564334",
"#  c #5A4233",
"$  c #574739",
"%  c #5B4639",
"&  c #5C4A3D",
"*  c #614D3E",
"=  c #64503F",
"-  c #5E4E42",
";  c #5C5247",
":  c #5C5348",
">  c #604E41",
",  c #615146",
"<  c #695746",
"1  c #62554B",
"2  c #64594E",
"3  c #6B5C4C",
"4  c #615750",
"5  c #635B53",
"6  c #6B5F52",
"7  c #665F58",
"8  c #666057",
"9  c #6F6050",
"0  c #686056",
"q  c #696156",
"w  c #696157",
"e  c #6C6052",
"r  c #666058",
"t  c #676058",
"y  c #676158",
"u  c #676159",
"i  c #67625A",
"p  c #67625B",
"a  c #666059",
"s  c #696058",
"d  c #686158",
"f  c #696259",
"g  c #6A6259",
"h  c #68625A",
"j  c #69625A",
"k  c #68635A",
"l  c #69635A",
"z  c #68625B",
"x  c #68635B",
"c  c #69635B",
"v  c #6A625A",
"b  c #6A635A",
"n  c #6A635B",
"m  c #68645A",
"M  c #69645B",
"N  c #6A645B",
"B  c #6A655B",
"V  c #6B655B",
"C  c #69645C",
"Z  c #6A645C",
"A  c #6A655C",
"S  c #6B655C",
"D  c #6A655D",
"F  c #6B655D",
"G  c #6A665C",
"H  c #6B665C",
"J  c #6B665D",
"K  c #6B675D",
"L  c #6C655D",
"P  c #6C665C",
"I  c #6C675D",
"U  c #6C675E",
"Y  c #686058",
"T  c #6C685E",
"R  c #6C685F",
"E  c #6D685F",
"W  c #726556",
"Q  c #746759",
"!  c #6D6861",
"~  c #6D6862",
"^  c #6D6962",
"/  c #746D63",
"(  c #706B64",
")  c #716C64",
"_  c #716C65",
"`  c #726D65",
"'  c #716D66",
"]  c #726D66",
"[  c #726D67",
"{  c #726E67",
"}  c #746F63",
"|  c #726E68",
" . c #757166",
".. c #767168",
"X. c #767269",
"o. c #777269",
"O. c #767369",
"+. c #76726A",
"@. c #77726A",
"#. c #76736A",
"$. c #77736A",
"%. c #77746A",
"&. c #77746B",
"*. c #76756A",
"=. c #78746B",
"-. c #78756B",
";. c #78756C",
":. c #79756C",
">. c #7B796E",
",. c #807B6E",
"<. c #807C6F",
"1. c #848276",
"2. c #858376",
"3. c #868578",
"4. c #868579",
"5. c #86867A",
"6. c #87867A",
"7. c #87877B",
"8. c #8A867B",
"9. c #8D8B81",
"0. c #8C8B82",
"q. c #8D8B82",
"w. c #8D8C82",
"e. c #8E8C83",
"r. c #8E8D83",
"t. c #8F8D83",
"y. c #8F8D84",
"u. c #908E85",
"i. c #918F85",
"p. c #918F86",
"a. c #919086",
/* pixels */
"4.4.4.4.4.4.4.4.4.4.4.1.< 1.4.4.4.4.4.4.4.4.4.4.4.4.4.4.4.4.4.4.4.4.4.4.4.,.3 4.4.4.4.4.4.4.4.4.4.4.",
"4.4.4.4.4.4.4.4.4.4.4.1.3 1.4.4.4.4.4.4.4.4.4.4.4.4.4.4.4.4.4.4.4.4.4.4.4.<.e 4.4.4.4.4.4.4.4.4.4.4.",
"0.0.0.0.0.0.0.0.0.y.p.t.W 0.p.p.y.t.t.t.t.t.t.t.t.0.0.0.0.0.0.0.0.0.t.p.a.8.Q p.p.p.t.t.t.t.t.t.t.t.",
"X.X.X.X.X.X.X.X.X.%.-.X., X.-.-.X.X.X.X.X.X.X.X.X.X.X.X.X.X.X.X.X.X.X.-.;.} < -.-.%.X.X.X.X.X.X.X.X.",
"U U U U U U U U U E E J * J U J J U U U J J J J J U U U U U U U U U U E E w * E U J U U U U J J J J ",
"E E E E E E E E E E U J * U E U U E E U U U U U U E E E E E E E E E E E U w > E E U U E E U U U U U ",
"U U U U U U U U U J J M * M J J J J J J J J J J J U U U U U U U U U J J U w > U J J J J J J J J J J ",
"J J J J J J J J J J J M & M J J J J J J J J J J J J J J J J J J J J J J J w * J J J J J J J J J J J ",
"J J J J J J J J J J J c % c J J J J J J J J J J J J J J J J J J J J J J J 7 & J J J J J J J J J J J ",
"J J J J J J J J J J J c + c M M M M M M M M M M M J J J J J J J J J J J J 5 # J M M M M M M M M M M ",
"c c c c c c c c c c c p + c c c c c c c c c c c c c c c c c c c c c c c M 5 # c c c c c M c c c c c ",
"c c c c c c c c c c c 8 + 8 c c c c c c c c c c c c c c c c c c c c c c c 5 # c c c c c c c c c c c ",
"p p p p c c c c c c c p o p c c c c c c c c c c c c p p p p c c c c c c c 5 # c c c c c c c c c c c ",
"- - - - - - - - - - - - X - - - - > , - - - - - - - - - - - - - - - - - > & X > - - - , > - - - - - ",
"X X X X X X X X X X X X - X X X X .   X X X X X X X X X X X X X X X X X X @ $ X X X X     X X X X X ",
": : : : : : : : : : : : ; : : : : $ @ : : : : : : : : : : : : : : : : : : : : : : : : @ $ : : : : : ",
"; ; ; ; : : ; ; ; ; ; ; ; ; ; ; : $ @ : ; ; ; ; : ; ; ; ; ; ; ; ; ; ; ; ; ; ; ; ; ; : @ $ : ; ; ; ; ",
"; ; ; ; : : ; ; ; ; ; ; ; ; ; ; : $ @ : ; ; ; ; : ; ; ; ; ; ; ; ; ; ; ; ; ; ; ; ; ; : @ $ : ; ; ; ; ",
"; ; ; ; ; ; ; ; ; ; ; ; ; ; ; ; ; $ @ : ; ; ; ; ; ; ; ; ; ; ; ; ; ; ; ; ; ; ; ; ; ; : @ $ : ; ; ; ; ",
"5 5 5 5 5 5 5 5 5 5 5 5 5 5 5 5 5 ; $ 5 5 5 5 5 5 5 5 5 5 5 5 5 5 5 5 5 5 5 5 5 5 5 5 - ; 5 5 5 5 5 ",
"5 5 5 5 5 5 5 5 5 5 5 5 5 8 5 5 5 , & 5 5 8 8 8 8 5 5 5 5 5 5 5 5 5 p p 8 8 8 5 5 5 5 & - 5 8 p p p ",
"2 2 2 1 - , 5 5 5 5 5 5 5 5 1 > & & % & 2 5 5 5 5 2 5 5 2 1 ; 1 2 2 2 2 2 2 2 2 , & & % # & 2 4 4 4 ",
"J J J c , c | | ) ) ) ) ) ) ) ) ) ) ) ) ) ( ( ( ( ) ) | ) U 1 J J J J J M M c c J J J J J J J J J J ",
"p p p 5 1 ) ! ! ! ! ! ! ! ! ! ! ! ! ! ! ! ! ! ! ! ! ! ! ! c 1 p p p p p p p p p p p p p p p p p p p ",
"p p p 5 1 ) ! ! ! ! ! ! ! ! ! ! ! ! ! ! ! ! ! ! ! ! ! ! ! c 1 p p p p p p p p p p p p p p p p p p p ",
"p p p 5 1 ) ! ! ! ! ! ! ! ! ! ! ! ! ! ! ! ! ! ! ! ! ! ! ! c 1 p p p p p p p p p p p p p p p p p p p ",
"p p p 5 , ) ! ! ! ! ! ! ! ! ! ! ! ! ! ! ! ! ! ! ! ! ! ! ! c - p p p p p p p p p p p p p p p p p p p ",
"p p p 5 % ( ! ! ! ! ! ! ! ! ! ! ! ! ! ! ! ! ! ! ! ! ! ! ! 5 # p p p p p p p p p p p p p p p p p p p ",
"; - % #   o o # # & > > > > > > > % # # # # # # O O o o o o # O # # # # # # # % % % % # % & , 2 2 2 ",
"p 5 5 5 5 1 1 1 1 1 1 1 1 1 1 1 1 - # & & - - & & & & & & - - - - - - - - - - - - - & # , c c J c c ",
"7 7 7 7 7 7 7 7 7 7 7 7 7 7 7 7 p 1 % : 1 4 4 4 4 4 4 4 4 4 4 4 4 4 4 4 4 4 4 4 4 1 ; # , p 7 5 5 5 ",
"7 7 7 7 7 7 7 7 7 7 7 7 7 7 7 7 7 2 - 4 4 4 4 4 4 4 4 4 4 4 4 4 4 4 4 4 4 4 4 4 4 4 1 & , 7 7 5 5 5 ",
"7 7 7 7 7 7 7 7 7 7 7 7 7 7 7 7 7 5 : 4 4 4 4 4 4 4 4 4 4 4 4 4 4 4 4 4 4 4 4 4 4 4 4 - , 7 7 7 7 7 ",
"7 7 7 7 7 7 7 7 7 7 7 7 7 7 7 7 7 4 ; 4 4 4 4 4 4 4 4 4 4 4 4 4 4 4 4 4 4 4 4 4 4 4 4 - 1 p 7 7 7 7 ",
"7 7 7 p p p 7 7 7 7 7 7 7 7 7 p p , % 5 4 4 4 4 4 4 4 4 4 4 4 4 4 4 4 4 4 4 4 4 4 4 5 % - p p p p p ",
"4 1 1 1 1 1 1 1 1 1 1 1 1 1 1 - & # X $ % $ - ; : : : ; ; 1 1 1 - & & & & & & $ % % # . o & 1 1 1 1 ",
"c 5 5 5 ; 5 7 7 5 5 5 5 5 5 5 2 1 1 1 2 2 2 5 5 5 5 5 7 5 ; 1 - 1 5 2 2 2 2 2 2 2 2 1 1 1 2 5 5 5 5 ",
"p p p 7 ; p c c p p p p p p p p p p p p p p p p p p p p p 1 # , p p p p p p p p p p p p p p p p p p ",
"7 7 7 5 ; 5 7 7 7 7 7 7 7 7 7 7 7 7 7 7 7 7 7 7 7 7 7 7 7 4 & 7 7 7 7 7 7 7 7 7 7 7 7 7 7 7 7 7 7 7 ",
"7 7 7 5 1 7 7 7 7 7 7 7 7 7 7 7 7 7 7 7 7 7 7 7 7 7 7 7 7 4 - p 7 7 7 7 7 7 7 7 7 7 7 7 7 7 7 7 7 7 ",
"7 7 7 5 - 5 7 7 7 7 7 7 7 7 7 7 7 7 7 7 7 7 7 7 7 7 7 7 7 4 - p 7 7 7 7 7 7 7 7 7 7 7 7 7 7 7 7 7 7 ",
"p p p 5 % 7 p p p p p p 7 p p p p p p p p p p p p p p p p 4 & p p p p p p p 7 p p p p p p p p p p p ",
", , , > # , , , , , , , 5 , , , , , , , , , , , , , , , , & # , , , , , , , 5 , , , , , , , , , , , ",
"= = = = = = = = = = = = > = = = = = = = = = = = = = = = = = = = = = = = = * > = = = = = = = = = = = ",
"%.%.%.%.%.%.%.%.%.%.%.%.< %.%.%.%.%.%.%.%.%.%.%.%.%.%.%.%.%.%.%.%.%.%.%.;.} < ;.%.%.%.%.%.%.%.%.%.%.",
"%.%.%.%.%.%.%.%.%.%.%. .3  .%.%.%.%.%.%.%.%.%.%.%.%.%.%.%.%.%.%.%.%.%.%.%.} 6 %.%.%.%.%.%.%.%.%.%.%.",
">.>.>.>.>.>.>.>.>.>.>.;.6 ;.>.>.>.>.>.>.>.>.>.>.>.>.>.>.>.>.>.>.>.>.>.>.>.X.e >.>.>.>.>.>.>.>.>.>.>.",
";.;.;.;.;.;.;.;.;.;.;.$.3 $.;.;.;.;.;.;.;.;.;.;.;.;.;.;.;.;.;.;.;.;.;.;.;. .6 ;.;.;.;.;.;.;.;.;.;.;.",
"5 5 5 5 5 5 5 5 5 8 8 8 1 8 5 5 5 5 8 5 8 8 8 8 5 5 5 5 5 5 5 8 5 5 5 5 5 5 1 5 5 5 8 8 8 5 5 5 8 8 ",
"8 8 8 8 8 8 8 8 8 p p 5 + 5 8 8 8 8 8 8 8 8 8 p 8 8 8 8 8 8 8 8 8 8 8 8 8 2 # p 8 8 8 8 8 8 8 8 8 8 "
};
