/* XPM */
static char *_1198de4008d4c68ea2eb1a5efb436c5YYnxLUsZOnsItVcv[] = {
/* columns rows colors chars-per-pixel */
"50 50 184 2 ",
"   c #362A22",
".  c #3A2C24",
"X  c #3C2F28",
"o  c #3E312A",
"O  c #3E3030",
"+  c #432D26",
"@  c #4A2E27",
"#  c #432F28",
"$  c #552E27",
"%  c #5B2F27",
"&  c #5B2F28",
"*  c #4A312A",
"=  c #53342E",
"-  c #423434",
";  c #4C3734",
":  c #4B3E3A",
">  c #583B38",
",  c #732F29",
"<  c #6D3029",
"1  c #70312A",
"2  c #783029",
"3  c #643B34",
"4  c #6D3C35",
"5  c #723E37",
"6  c #4E413B",
"7  c #53463F",
"8  c #3F3446",
"9  c #3E385F",
"0  c #3D3662",
"q  c #3F3863",
"w  c #473544",
"e  c #413749",
"r  c #443A4C",
"t  c #433B55",
"y  c #493F51",
"u  c #443B59",
"i  c #423C64",
"p  c #443D69",
"a  c #524542",
"s  c #544841",
"d  c #574B49",
"f  c #4B4153",
"g  c #554C56",
"h  c #544A5B",
"j  c #70504A",
"k  c #655A55",
"l  c #655B55",
"z  c #464066",
"x  c #4B4364",
"c  c #47406A",
"v  c #49436C",
"b  c #4F496F",
"n  c #5A4F61",
"m  c #5D5469",
"M  c #4C4572",
"N  c #4F4972",
"B  c #514B74",
"V  c #554E7A",
"C  c #575177",
"Z  c #5D5472",
"A  c #57507B",
"S  c #59527D",
"D  c #5E587F",
"F  c #6B5965",
"G  c #615975",
"H  c #635B7C",
"J  c #6B626F",
"K  c #776866",
"L  c #786E69",
"P  c #6C6172",
"I  c #716779",
"U  c #7F7774",
"Y  c #89332C",
"T  c #97322A",
"R  c #9B312A",
"E  c #A5322B",
"W  c #A9332C",
"Q  c #AD3731",
"!  c #AF3932",
"~  c #B03933",
"^  c #BE443D",
"/  c #924943",
"(  c #9F4E47",
")  c #A04E47",
"_  c #B9564F",
"`  c #BA5750",
"'  c #B75851",
"]  c #80626E",
"[  c #847C78",
"{  c #C84B44",
"}  c #D7574F",
"|  c #CB5953",
" . c #DA5A54",
".. c #D95F59",
"X. c #D96059",
"o. c #E3625C",
"O. c #EB665F",
"+. c #DE7F7D",
"@. c #ED6760",
"#. c #ED6962",
"$. c #EE6E69",
"%. c #F06962",
"&. c #EA7B79",
"*. c #89837F",
"=. c #EC817F",
"-. c #5C5581",
";. c #5F5883",
":. c #625C84",
">. c #645D89",
",. c #666087",
"<. c #67608A",
"1. c #6A638D",
"2. c #6E688F",
"3. c #756E8A",
"4. c #6C6591",
"5. c #6F6892",
"6. c #716A95",
"7. c #746D99",
"8. c #7A7191",
"9. c #77709B",
"0. c #7A749D",
"q. c #7C75A1",
"w. c #7F78A3",
"e. c #847B98",
"r. c #837CA5",
"t. c #857EAA",
"y. c #8F8986",
"u. c #99918D",
"i. c #8A819D",
"p. c #9D9793",
"a. c #A09A95",
"s. c #A19C9A",
"d. c #8781A7",
"f. c #8B84A4",
"g. c #8780AB",
"h. c #8A83AD",
"j. c #9089AE",
"k. c #8C85B1",
"l. c #8F89B2",
"z. c #928BB5",
"x. c #948DB9",
"c. c #9690B7",
"v. c #9790BC",
"b. c #9992BD",
"n. c #9E98BF",
"m. c #AAA7A7",
"M. c #B0ADAB",
"N. c #B6B4B4",
"B. c #BAB6B5",
"V. c #BCBBBA",
"C. c #ED8483",
"Z. c #EE8F90",
"A. c #EE9090",
"S. c #EF999B",
"D. c #F09FA3",
"F. c #EFA2A5",
"G. c #F0A5A7",
"H. c #F3B9BA",
"J. c #9D96C2",
"K. c #9F98C3",
"L. c #A29BC5",
"P. c #A39CC7",
"I. c #A49DC8",
"U. c #A59EC9",
"Y. c #A59ECA",
"T. c #A6A0C7",
"R. c #A7A1CA",
"E. c #A7A0CB",
"W. c #A8A1CC",
"Q. c #A9A3CC",
"!. c #C5C5C5",
"~. c #C9C5C3",
"^. c #CACACA",
"/. c #D4D3D3",
"(. c #D8D5D4",
"). c #F6CED0",
"_. c #F6CFD0",
"`. c #E2E0DF",
"'. c #E7E5E4",
"]. c #E8E7E6",
"[. c #EBE9E8",
"{. c #F7E9E9",
"}. c gray97",
"|. c #FDFDFD",
/* pixels */
"P.P.P.P.P.P.P.P.P.U.W.W.W.W.W.W.W.W.E.E.U.U.P.P.P.U.U.U.E.W.W.W.W.W.U.P.P.P.P.P.P.P.K.K.P.P.P.K.P.P.",
"x.x.x.x.x.x.x.z.l.h.l.z.v.v.v.v.b.v.x.x.x.z.h.t.h.l.x.x.x.v.b.b.b.b.x.h.g.h.l.z.z.x.z.z.z.z.z.z.h.t.",
"7.7.7.7.7.7.7.6.;.B M V 5.6.6.6.6.5.5.5.5.<.-.V S >.5.5.5.6.7.6.6.6.5.S B A >.5.5.5.5.5.5.5.5.5.-.N ",
"5.5.5.5.5.5.5.4.A c p M >.5.<.<.<.<.<.<.<.:.B c M ;.<.<.<.5.5.5.4.5.<.M i v S <.4.4.4.4.4.4.5.<.V p ",
"5.5.5.5.5.5.5.4.S M v N <.5.5.5.5.<.<.<.<.:.B p M :.5.5.<.5.5.5.5.5.<.M i v -.5.5.5.5.5.5.5.5.<.V p ",
"4.4.4.4.4.4.4.<.S M v N <.5.5.5.4.<.<.4.4.>.B p M :.5.5.5.5.6.5.5.5.<.M i v -.4.5.5.5.5.5.5.5.<.V p ",
"<.<.<.<.<.<.<.>.V v p M <.5.5.5.4.4.<.5.5.>.B p M >.7.6.5.6.6.5.5.5.<.M i v S 4.5.5.5.5.5.5.5.4.V p ",
"4.4.<.<.<.<.4.<.S v v N >.<.<.<.<.>.>.<.4.>.B p M >.5.5.4.5.5.<.<.<.>.M p v S <.4.4.4.4.4.4.4.<.V p ",
"V V V V V V V V V v c M V V V V V V B B V B M M M B V V V V V B B V B v p v V V S A A A A A S V v p ",
"p p p p p p p p p p p p p p p p p p p p p p p p p p p p p p p p p p p i p p M p i i i i i i i i i q ",
"i i i p i i i i i i i i i i i p i i i i p p p p p p p p p p i i i i i i i i i i 0 0 0 0 0 0 0 0 0 0 ",
"<.<.<.<.<.<.<.<.S v p M >.<.<.<.<.<.<.<.Z y y y y y y y y Z <.<.<.<.>.M i p B ;.>.>.>.>.>.>.>.>.>.>.",
"K.K.K.K.K.K.P.J.q.v i V l.P.J.b.P.P.P.U.I . . . . . . . . I U.P.P.U.v.-.q c 7.b.K.J.J.K.K.K.K.K.K.K.",
"P.P.P.P.P.P.P.P.r.N p -.x.W.U.b.f.i.i.i.K 5 4 & & & & & % F i.i.i.f.b.;.0 p 0.U.U.P.U.U.U.U.U.U.U.U.",
"b.b.b.b.b.b.b.v.q.N p -.x.E.U.j.: X o X / @.} E E E E E E 1 o o o : r.-.q p 7.P.P.J.b.b.b.b.b.b.b.b.",
"7.7.7.7.7.7.9.7.<.v i A x.P.z.e.> = = = ( $...~ Q E E E E 2 @ @ @ ; H B c v 0.U.U.z.q.7.9.0.7.6.7.7.",
"<.<.<.<.<.<.<.<.-.p 0 V x.i.: > | X.X...&.S.C.o. .Q E E E R R R R Y ; - u M q.U.U.z.6.>.<.4.4.<.<.<.",
"5.5.5.5.5.5.5.<.S p q V x.e.X = X.@.@.@.C.F.A.#.o.! E E E E E E E R @ X t M q.P.U.z.5.>.<.4.4.4.1.4.",
"<.<.<.<.<.<.<.<.S p q V x.e.o = ..@.C.Z.H.{.).A.C...} } } ^ E E E R @ X t M 0.P.U.z.5.<.<.4.4.4.4.4.",
"<.<.<.<.<.<.<.<.S p 0 V v.e.X = ..@.Z.D._.|.{.F.S.$.O.@.#.{ E E E R @ X t M q.W.U.z.5.<.<.4.4.4.4.4.",
"<.<.<.<.<.<.4.<.S p q x P ] / ( o.@.&.C.G._.H.C.&.#.O.O.@.{ E E E R , < w r 3.U.U.z.5.>.<.4.<.<.1.1.",
";.;.;.;.;.;.;.;.A p i e . 5 O.@.O.O.O.O.=.D.Z.@.@.@.@.@.#.{ E E E E E E % . n r.w.9.:.S S -.S S S S ",
"v v v v v v v v c i i e . 5 O.O.O.O.O.O.&.A.+.` _ ` ` |  .^ E E E E E E & . r M v v p p p p p p p p ",
"i i i i i i i q q q q 8 . 5 O.O.O.O.O.O.@.%.` # X X + Y W E E E E E E E & . e p p p p p p p p p c c ",
"S S S S S S S A A V A f . 4 ..X.O.O.O.O.o.X.' 7 7 6 : Y R R E E E E R T & . f S S S S S S S S C B c ",
"b.b.b.b.v.b.b.b.v.v.b.P . # = 3 X.O.O.@.) * K '.`.V.N.k + 2 E E E R $ @ + . P b.b.b.b.b.b.c.b.z.:.i ",
"U.U.U.U.U.U.U.U.U.U.W.I . o o > ..O.O.O./   K }.}.^.!.k . , E E E T * o X . I U.P.P.P.P.P.P.U.n.,.i ",
"P.P.J.J.J.J.J.J.J.K.P.P   k !.B.j 4 4 4 = . k /.(.^.!.k . @ % % % 3 u.s.d   P J.J.J.J.J.J.n.n.c.,.i ",
"P.J.w.6.0.q.q.q.q.q.w.m   L |.[.6       .   k !.^.^.!.k   . . . . : B.^.k   m r.r.r.r.r.r.r.r.0.C i ",
"P.J.0.<.5.5.5.5.5.5.5.H h P u.p.p.a.a.a.a.a.u.[ [ [ U [ [ [ [ [ [ [ [ [ m h G 5.5.5.5.5.2.2.2.,.B i ",
"P.J.q.4.5.5.5.5.5.5.5.5.5.Z . 7 [.|.|.|.|.|.~.X     . s.^.^.^.^.^.B.: . Z 4.<.<.<.<.<.<.1.1.1.<.B i ",
"P.J.q.4.5.5.5.5.5.4.4.4.5.Z X s ].|.|.|.|.|.(.L K K L M.^.!.!.!.^.N.6 X Z 5.2.2.5.5.5.5.5.5.2.1.B i ",
"P.J.q.4.5.5.5.5.5.4.4.4.4.Z X s [.|.|.|.|.|.|.|.|.|.}.(.!.^.^.^.^.B.6 X G 6.5.2.2.2.5.5.5.2.2.1.B z ",
"U.J.q.<.4.4.5.5.5.5.4.4.4.Z - d /.[.].].[.}.}.}.}.}.}.(.!.V.N.N.B.m.a - G 5.2.2.2.2.2.2.2.2.2.1.B z ",
"z.k.5.;.;.:.:.:.:.:.:.:.:.;.S Z d s s 7 y./.^.^.^.^.^.^.^.*.: 6 6 a Z Z H :.:.:.:.:.:.:.:.:.:.H B i ",
"B A M v M M M M M M M M M M N v O X X . U !.!.!.!.!.!.!.!.U . X X o x v v v v v v v v v v v v c z i ",
"p p p p p p p i i v v v c c c p u u u u g k k k k k k k k g t t t t z c c i i i i i i i i i i i i i ",
"B B B B N N B N M v v v N N M N N N N N r                 r B b b N b c i i c b b b b b N N N b B B ",
"l.k.k.k.k.k.l.k.0.B c B r.h.g.g.g.g.g.h.8.P P P P P P P J 8.g.d.d.g.r.B i c ,.h.z.j.z.z.z.z.z.z.z.z.",
"P.P.P.P.P.P.P.P.t.B p V b.U.P.U.U.U.U.U.U.U.U.U.U.U.U.U.U.U.U.U.U.T.b.:.9 z 9.T.E.T.T.T.T.T.T.T.T.T.",
"P.P.P.P.P.P.P.J.q.N p V b.U.P.P.P.P.P.P.P.P.P.P.P.P.L.L.L.L.L.L.L.U.c.D 9 c 0.T.W.T.K.L.L.L.L.L.L.L.",
"g.g.g.g.g.g.g.t.6.v p V x.P.J.z.t.t.t.t.t.t.t.t.t.t.r.r.d.d.r.r.r.g.w.A q z 0.U.U.c.r.r.d.r.r.r.r.r.",
"5.5.5.5.5.5.5.5.>.c i V x.P.b.t.5.4.4.4.4.4.4.5.2.2.2.2.2.2.2.2.1.2.,.B i z 0.U.K.h.2.2.2.2.2.2.2.2.",
"<.<.<.<.<.<.<.<.:.p i V z.J.b.w.5.<.4.4.4.4.4.<.1.1.1.1.1.1.1.1.1.1.,.B i i 0.T.L.h.1.,.1.,.,.,.,.,.",
"5.5.4.4.5.5.5.5.;.c q B z.K.b.q.5.1.5.5.2.2.5.5.2.1.4.4.1.1.1.1.1.1.<.B i z 0.U.L.h.1.1.2.,.<.<.,.,.",
"5.5.5.5.5.5.5.5.;.c q B l.K.b.q.1.<.1.1.1.1.1.2.1.1.1.1.1.1.1.1.1.1.:.N i c 0.U.L.h.1.1.2.,.<.1.,.,.",
"2.2.2.1.2.2.2.1.D c i B z.L.L.w.1.,.1.1.1.1.2.2.2.2.2.2.2.2.2.2.1.1.:.b q i 0.E.P.h.2.1.2.1.1.1.1.1.",
":.:.:.:.:.:.,.:.S c i B d.x.x.9.,.:.,.:.<.<.,.,.,.,.,.,.,.,.,.,.<.<.:.N i c 7.b.c.r.<.<.,.,.,.,.,.,.",
"v v v v v v v v v c z v B C C B B b B B B B B B B B B b b b b b B B B b v v B C C B B B B B B B B B ",
"i i i i i i i i z z i i i u i i i i i i i i i i i i i i i i i i i i i i i i i i i i i i i i i i i i "
};
