/* XPM */
static char *_ce9c39ed5e34e4ae441c3097a6ef853V46TMNTOKzf09xjC[] = {
/* columns rows colors chars-per-pixel */
"50 50 225 2 ",
"   c #050404",
".  c #090303",
"X  c #090708",
"o  c #0C0C0C",
"O  c #170B09",
"+  c #18140D",
"@  c #0C0B12",
"#  c #0A0C1A",
"$  c #150B12",
"%  c #0F1111",
"&  c #141414",
"*  c #15141C",
"=  c #1B1718",
"-  c #1B1B1C",
";  c #220A0A",
":  c #270A09",
">  c #320D0D",
",  c #23180C",
"<  c #34110F",
"1  c #261815",
"2  c #331413",
"3  c #381414",
"4  c #2D220D",
"5  c #352C17",
"6  c #0C0D24",
"7  c #0F0F29",
"8  c #1B1926",
"9  c #0F1232",
"0  c #121335",
"q  c #201D26",
"w  c #2B1B2E",
"e  c #1F2020",
"r  c #232323",
"t  c #26262A",
"y  c #2A2528",
"u  c #2B2A2B",
"i  c #352E2D",
"p  c #2A2837",
"a  c #312A36",
"s  c #333333",
"d  c #34333B",
"f  c #393638",
"g  c #3B3B3C",
"h  c #410F0C",
"j  c #44110E",
"k  c #4B110E",
"l  c #471918",
"z  c #561C1A",
"x  c #671713",
"c  c #711913",
"v  c #57201E",
"b  c #4A3B17",
"n  c #65211D",
"m  c #6A211E",
"M  c #6D321E",
"N  c #432427",
"B  c #5A2C2A",
"V  c #483D25",
"C  c #6A2623",
"Z  c #762723",
"A  c #7A2621",
"S  c #713C3A",
"D  c #5B481C",
"F  c #67501D",
"G  c #534933",
"H  c #735923",
"J  c #6D5D37",
"K  c #7E6327",
"L  c #161B48",
"P  c #171C54",
"I  c #1C2045",
"U  c #1B2257",
"Y  c #282745",
"T  c #332E48",
"R  c #363345",
"E  c #3A3745",
"W  c #36324A",
"Q  c #3D3B4B",
"!  c #222656",
"~  c #3C3757",
"^  c #1E2466",
"/  c #262E68",
"(  c #3D3662",
")  c #3F3863",
"_  c #212874",
"`  c #212A75",
"'  c #403E4C",
"]  c #413D59",
"[  c #423C64",
"{  c #443D69",
"}  c #444444",
"|  c #494747",
" . c #45444B",
".. c #4C4C4C",
"X. c #53514F",
"o. c #454254",
"O. c #4A4858",
"+. c #535353",
"@. c #565758",
"#. c #5B5C5C",
"$. c #7D4A49",
"%. c #645F5A",
"&. c #776851",
"*. c #494466",
"=. c #4D4964",
"-. c #47406A",
";. c #49436C",
":. c #514E62",
">. c #514D6A",
",. c #585569",
"<. c #4E4872",
"1. c #524C74",
"2. c #554E7A",
"3. c #5A5575",
"4. c #57507C",
"5. c #59537D",
"6. c #615C76",
"7. c #646463",
"8. c #686769",
"9. c #6B6B6B",
"0. c #736C6A",
"q. c #6C6976",
"w. c #736E74",
"e. c #747474",
"r. c #787877",
"t. c #7B7B7B",
"y. c #871D16",
"u. c #8A241C",
"i. c #95261E",
"p. c #A6261D",
"a. c #A8271D",
"s. c #B42A1F",
"d. c #892823",
"f. c #972821",
"g. c #9B2921",
"h. c #A32921",
"j. c #B62B20",
"k. c #B82B21",
"l. c #844127",
"z. c #876A29",
"x. c #956E3B",
"c. c #947530",
"v. c #977633",
"b. c #A07D2F",
"n. c #914845",
"m. c #B24F49",
"M. c #837757",
"N. c #837C7A",
"B. c #A96764",
"V. c #C05E59",
"C. c #C3625D",
"Z. c #B59139",
"A. c #C59D3E",
"S. c #96845F",
"D. c #AA9054",
"F. c #918569",
"G. c #AC966D",
"H. c #CCA952",
"J. c #242D84",
"K. c #2D368F",
"L. c #283395",
"P. c #28349A",
"I. c #2E3AA7",
"U. c #2F3CB1",
"Y. c #313EB8",
"T. c #3441B7",
"R. c #5C5581",
"E. c #5F5B8D",
"W. c #4C4E9C",
"Q. c #645D84",
"!. c #655E89",
"~. c #666186",
"^. c #6D6886",
"/. c #676189",
"(. c #6A638D",
"). c #787686",
"_. c #6C6691",
"`. c #6F6892",
"'. c #726B95",
"]. c #746D99",
"[. c #7B7599",
"{. c #424AB2",
"}. c #7C75A1",
"|. c #3443C5",
" X c #817D94",
".X c #847DA6",
"XX c #7F8180",
"oX c #838283",
"OX c #8A8885",
"+X c #8C8B8B",
"@X c #938B8D",
"#X c #949394",
"$X c #979699",
"%X c #9C9C9C",
"&X c #A29F9F",
"*X c #8780A8",
"=X c #8B85AD",
"-X c #908BAF",
";X c #8D86B1",
":X c #928BB4",
">X c #948DB9",
",X c #9690B8",
"<X c #9A93BC",
"1X c #A4A4A4",
"2X c #AFAAA6",
"3X c #ACACAC",
"4X c #B1ABA9",
"5X c #B4B4B4",
"6X c #BCBCBC",
"7X c #C98C88",
"8X c #C9B1AF",
"9X c #CABCBA",
"0X c #D1CABD",
"qX c #9D96C2",
"wX c #9F98C3",
"eX c #A19BC5",
"rX c #A59EC9",
"tX c #A7A1CB",
"yX c #C4C4C4",
"uX c #C8C8C7",
"iX c #CCCCCC",
"pX c #D2CCCC",
"aX c #D5D5D5",
"sX c #DCDCDC",
"dX c #E4E4E4",
/* pixels */
"eXeXeXeXeXeXeXeXeXrX<X[.,.:.[.<XtXtXtXtXtXrXeX=X[.[.:XrXtXtXtXtXtXrX,X^.=.,.[.>XwXeXwXwXeXeXeXqXeXrX",
">X>X>X>X>X>X>X>X;X=X^.Q 3.~.o.~.=X,X>X>X;X=X[.:.y u ,.*X;X:X<X<X,X=Xq.Q 3.3.Q ^.:X>X>X>X:X:X:X:X=X.X",
"].].].].].].].'.R.<.[ T ~ ] ] ] ] Q.`./.*.W a w l l N R W *.`.]./.o.~ W T W ] 5.`.`.`.`.`.`.`._.R.<.",
"`.`.`.`.`.`.`._.4.-.{ [ W a =.o.E =.3.1.Q t o 2 z z 3 $ t  .3.5.>.E o.~ q Y 1.(._._._._._._.`.(.2.{ ",
"`.`.`.`.`.`.`._.5.;.;.<.5.=.R w.#X .q a  XoX- . O ; O 1 oXoXa q  .$Xw.p T [ R.`.`.`.`.`.`.`.`.(.2.-.",
"_._._._._._._.(.5.;.;.<.(.3.t 9.3Xt.g = #.0.N < k k h N 0.#.& s r.3X9.8 T ;.R._.`.`.`.`.`.`.`.(.2.{ ",
"(.(.(.(.(.(.(.!.4.;.-.<.(.3.q } +X6X+Xu & 1 C u.a.a.i.n 1 & t t.5X+X} * W ;.R._.`.`.`.`.`.`.`._.2.{ ",
"(.(.(.(.(.(._.(.5.;.;.<.!.2.8 & g +X3X+Xs ; m g.k.k.g.n O s #X3X+Xg & @ W ;.5.(._._._._._._._./.2.{ ",
"2.2.2.2.2.2.2.2.1.;.-.;.;.] d u s @.+X3X} ; n g.j.j.g.n O } 5X#X#.s u s W ~ 1.4.5.4.4.4.4.4.5.2.;.{ ",
"{ { { { { { { { { { { ) p t 8.t.8.s | e.s ; n g.j.k.g.n O s r.+.f 8.t.9.u p -.{ [ [ [ [ [ [ [ [ [ ) ",
"[ [ [ [ { { { { [ [ [ ~ 8 r e.F.M.%...s & ; m g.s.k.g.n O & s | %.M.F.r.u 8 ~ [ ( ( ( ( ( ( ( ( ( ( ",
"(.(.(.(.5.2.!.(.5.;.{ ] ' +.OXM.J %. .% & y v u.h.h.u.v y & o g %.J M.+X+.E ] 5.!.!.!.Q.1.5.Q.!.!.!.",
"wXwXqX:X3.o.*X<X}.;.~ R ).6XuX0.1 = & & ..+.1 l A A z 1 +...& % = 1 0.uX6Xt.R ^.<XqXqX=X:.6.>XqXwXwX",
"eXeX:X^.8.8.q.*X[.~ W  .9.%XuX9.o , 5 5 G g o ; l l ; o g G 5 5 , % 9.iX&X9.| ,.[.<X*X^.8.q.^.:XeXrX",
"<X>X^.a oX3X .,.`.p d e.+.7.6X9.+ D z.K V r , O . . O , r V K z.D + 9.6X9.+.e.} o.=X,.d $XoXd ^.>X<X",
"].].>.r oX3Xg ] 5.8 s oX%X5XiX9.1 F b.Z.D.D.c.b X X 5 c.D.D.Z.b.F 1 9.pX6X&XoXg Q [.o.t #XoXt =.'.].",
"(.(.2.Q 7.w.#.:.~ * s oX#X1XiX#XX.D z.A.H.H.z.G s s G z.H.H.H.z.D X.%XaX3X#XoXg p 3.,.@.q.8.Q 2.(.(.",
"`.`.(.Q.E g %Xe.* X s r.+.#.yXsX5XG D Z.Z.c.V #.OX+X%.V c.Z.Z.D | 5XsXuX7.+.r.g o 8 r.3X..Q 5.(.(.(.",
"(.(._.Q.T s 3Xr.%   s oX#X1XaXdXiXr...b b G OX3XuXuX5XOXG b b G t.aXdXaX1X@XoXg   o r.6X} W Q.`.(._.",
"(.(.(.!.o. .+Xr.g & s oX%X5XaXdXaX%X#.& = #.uXyX1X1XyXyX#.= o ..%XaXdXsX5X%XoXg & g r.#XO.o./.`._._.",
"(.(.(.(.Q.1.E e.%Xg s r.+.#.yXdXaX1X#.= X.%XiXoXs u r.uX#XX.& ..%XaXdXuX7.+.r.g g %X9.d >.Q.(.(.(.(.",
"R.R.R.R.R.<.8 g 7.y s t.t.+XiXdXaX%X#.- 7.1XaX1Xe.e.&XiX1X7.& ..%XaXdXaX#Xt.N.g u 7.g * *.5.5.5.5.5.",
";.;.-.-.;.~ * X o   y 9.#X5XsXdXaX1X#.- 7.1XaXpX8X8XpXaX1X7.= ..%XaXdXsX6X#X9.u   o   @ ~ { { { { { ",
"[ [ [ [ [ ~ * X X X o - u #.yXdXaX&X#.- #.1XpX7Xm.m.7XpX1X#.= ..%XaXdXuX7.u - % X X X * ~ { { { -.-.",
"5.5.5.2.*.Q E ..#.#.+.s & u 1XuX6X%X#.& f e.4XB.g.g.B.2Xe.f & ..#X6XuX1Xs & s ..#.#.#.#.o.=.4.5.1.-.",
"<X<X<X=XO.u 9.3XaXaX6XoXs r 9.OX+X+X#.& @ d e.$.Z Z $.w.d @ o ..+X+XoXe.y s oX6XaXaXaX5X .:.-X:XQ.[ ",
"rXrXrX<X:.t r.6XdXdXsX6X| o t s } r.#.* P / d B Z Z B d / P # X.e.} s u & | 5XsXdXdXiX%Xg :.<X<X~.[ ",
"eXeXqX>X^.O.,.#XuXuXuX5X| @ 9 L Y +.o.U L.K.i M l.l.M i K.L.U Q +.Y L 9 @ | 5XuXuXuX#X#.O.^.<X,X~.[ ",
"eXqX.X'.'.6.R +.+X+X+XoXd 9 L.U.L.L U I.|.W.&.x.x.x.x.&.W.|.I.! I L.U.L.0 d oX+X+X+X+.d 3.[..X[.5.[ ",
"eXqX}.!.>.O.w.7.g g g g Y ^ Y.|.Y.J.L.|.|.{.E.Q.Q.Q.Q.E.{.|.|.P.J.Y.|.Y._ Y g g g g 7.e.:.>.(.(.1.[ ",
"eXqX}./.Q f 3X+X} s s t ! _ L.P.P.L.L.P.U.T.T.T.T.T.T.T.Y.U.P.P.L.P.P.L._ ! t i s } #X5X .E Q./.1.[ ",
"eXqX}.(.Q s 5XiX5X3X%X9.a 6 7 7 7 7 7 0 _ L.P.L.L.L.L.P.L._ 0 7 7 7 7 7 6 a 9.#X3X5XiXyX} R ~.(.1.[ ",
"eXqX}./.R s 5X5XoXr.9.| - . : 2 < < < 2 w ^ J.^ L L ^ J.U w 2 < < < 2 > O - | 9.r.oX5X6X} R ~.(.1.*.",
"rXqX}.Q.~ E %Xr.r & & o   O x A A Z A m : 9 _ P 6 6 L _ 9 : m A A A A n ;   o & & r r.1X..] /.(.1.*.",
":X;X`.R.1.=... .} } g r o : u.h.h.h.h.u.> 7 _ _ ^ ^ _ _ 7 > u.h.h.h.h.u.: o e s } } } ..=.1.Q.Q.1.[ ",
"1.4.;.-.[ W a } 7.8.#.} y 1 z c c c c x : # L U U U U L # : x c c c c x 1 y } #.8.7.} s W ] ;.;.*.[ ",
"{ { { [ p 8 ..7.8.8.7.+.g r O + 1 ; O O .   $ $ $ $ $ $   . O O ; 1 + O r g +.7.8.8.7.+.r p ~ [ [ [ ",
"1.1.1.;.p = +.9.8.8.+.u u r % ..N.J D b + ; x c c c c z ; + b D J N...o r u u ..8.8.9.#.r p =.<.1.1.",
";X;X;X.X' = | 7.8.8...r y r & t.0XD.c.H 4 : c y.y.y.y.c : , H c.D.0Xr.& r y r | 8.8.7...q o.*X:X:X:X",
"eXeXeX>X:.8 s ..7.7.#...g r - oX0XG.c.K 4 X 1 2 2 2 2 1 . 4 K c.G.0X).= r g X.#.7.7...s q ,.<XtXtXtX",
"eXeXeX<X.X,.u i } | | } u r | +X2XG.S.&.5 r 8.t.r.r.r.8.r 5 &.S.G.2X+X..y u } | | | u t :. X<XeXeXeX",
"*X*X*X*X.X'.R r u u u y o = #.r.r.e.e.7.r g yXdXsXsXdX6Xg r 7.e.e.r.r.7.- o y u u u r a ^..X.X.X.X.X",
"`.`.`.`.`.`.5.E * X o o   o r y y t t r o } uXdXdXdXdXyX} o e t t y u r o   o o o * R 3.^.(.(.(.(.(.",
"(.(.(.(.(.(.!.1.p @ & s g } @.#.#.#.X.g g +.oX+X+X+X+XXX+.g g ..#.#.#.@.} g s = - Q >.~.(./././././.",
"`.`.`.`.`.`.`./.=.q i 0.N.@X8X9X9X9X2XN.N.%.y & & & & y %.N.N.&X9X9X9X8X@XN.0.f d ^.~.(.(.(.(.(././.",
"`.`.`.`.`.`.(.>.a l B $.n.m.V.C.C.C.m.m.n.S l ;     O l S n.m.m.C.C.C.m.m.n.$.C N E =./.(.(.(.(././.",
"(.(.(.(.(.(.~.Q $ z A d.h.k.k.k.k.k.k.j.f.d.Z 2     < C d.f.j.k.j.j.k.k.k.h.d.A z $ Q ~.(.(.(.(.(.(.",
"Q.Q.Q.Q.Q.~.Q.~ = z A i.p.a.a.p.p.p.p.p.p.i.m 3 @ @ 2 C i.p.p.a.p.p.p.p.p.p.i.A z = ~ Q.(.~.~.~.~.~.",
";.;.;.;.;.;.;.] T w 3 k k k k k k k k k k j 3 a T W a 3 j k k k k k k k k k k 3 w W *.<.1.1.1.1.1.1.",
"[ [ [ [ [ [ [ [ ~ 8 X . . . . . . . . . . . X p ~ ] Y o . . . . . . . . . . . X 8 ~ [ [ [ [ [ [ [ [ "
};
